<?xml version="1.0" encoding="UTF-8" standalone="no"?>
<svg xmlns:dc="http://purl.org/dc/elements/1.1/" 
   xmlns:cc="http://creativecommons.org/ns#" 
   xmlns:rdf="http://www.w3.org/1999/02/22-rdf-syntax-ns#" 
   xmlns:svg="http://www.w3.org/2000/svg" 
   xmlns="http://www.w3.org/2000/svg" id="svg8" version="1.1" viewBox="0 0 63.500001 63.499999" height="63.5mm" width="63.5mm">
   <defs id="defs2" />
   <metadata id="metadata5">
      <rdf:RDF>
         <cc:Work rdf:about="">
            <dc:format>image/svg+xml</dc:format>
            <dc:type rdf:resource="http://purl.org/dc/dcmitype/StillImage" />
            <dc:title></dc:title>
         </cc:Work>
      </rdf:RDF>
   </metadata>
   <g transform="translate(-1.066357,26.550368)" id="layer1">
      <g transform="matrix(0.35277777,0,0,-0.35277777,0.48527133,51.07445)" id="g10">
         <g transform="matrix(0.17687079,0,0,0.17686559,-1.2661941,-30.776109)" id="g12">
            <g transform="translate(-147.72728,-18.939394)" id="g3778">
               <path d="m 1162.13,1122.38 c -16.05,-3.99 -46.29,-1.26 -77.67,13.91 -38.99,18.75 -77.78,69.69 -100.124,102.99 -4.258,6.07 -15.449,23.95 -17.598,27.8 l 1.2,3.75 4.875,21.22 c 10.871,-14.99 23.32,-31.28 37.197,-47.8 17.99,-21.43 38.6,-43.35 62.23,-63.53 30.84,-26.41 65.98,-38.6 89.77,-45.41 8.16,-2.38 10.78,-5.55 10.72,-6.75 0,-1.15 -2.61,-4.22 -10.6,-6.18 z m -87.08,6.39 c -10.26,-2.68 -28.02,-0.57 -46.92,13.18 -31.997,23.41 -72.329,84.05 -89.985,112.07 l -7.254,10.19 c -1.692,2.3 -2.539,6.48 -1.965,9.35 l 3.633,16.4 2.168,2.88 3.132,-1.67 15.801,-22.96 11.684,-16.74 c 18.211,-29.2 63.726,-96.72 111.966,-121.98 z m -142.737,77.41 c -11.622,18.97 -21.317,35.89 -28.243,48.36 h 0.063 l -7.656,12.63 c -1.704,2.4 -2.571,6.28 -1.946,9.16 l 3.114,13.36 2.218,2.84 3.086,-1.69 12.227,-17.44 11.777,-18.92 c 11.301,-18.26 37.512,-59.16 64.856,-90.33 -19.582,-1.2 -43.059,15.2 -59.496,42.03 z m -37.86,11.39 c -4.265,6.13 -14.25,24.17 -21.238,37.07 l -8.344,14.79 0.051,-0.05 c -1.477,2.35 -2.567,6.37 -1.887,9.35 l 3.125,12.5 2.121,2.76 3.157,-1.67 9.539,-15.64 c 0,0 6.582,-11.65 12.492,-22.09 h 0.078 c 1.375,-2.62 2.976,-5.47 4.676,-8.5 2.097,-3.63 3.632,-6.43 4.187,-7.41 6.145,-10.78 13.613,-23.51 22.16,-37.51 1.707,-2.73 3.477,-5.36 5.301,-7.93 -7.293,1.15 -24.187,8.33 -35.418,24.33 z m -32.098,10.93 c -5.246,6.93 -12.003,17.59 -17.167,26.2 l -9.622,15.32 c -1.472,2.83 -1.621,5.95 -0.996,8.66 l 2.715,10.55 2.383,2.7 3.27,-1.61 9.269,-15.55 10.559,-20.13 c 5.437,-10.06 14.019,-25.86 20.039,-35.81 -5.383,-0.16 -13.84,1.15 -20.45,9.67 z m -36.585,13.13 c -8.661,13.75 -15.497,25.62 -20.223,34.12 l -5.391,8.92 -0.566,0.94 c -1.106,1.89 -1.699,2.94 -1.184,5.5 l 3.496,7.35 2.871,2.19 3.008,-1.94 8.449,-13.1 18.274,-30.86 c 4.473,-7.71 11.172,-18.75 17.234,-27.28 -6.504,-0.33 -17.843,1.37 -25.968,14.16 z m -12.567,-9.24 -12.742,-1.37 c -2.16,-0.18 -3.969,1.87 -4.074,4.57 l -1.199,36.82 c -0.11,2.69 1.992,3.29 3.082,0.93 l 16.898,-36.25 z m -19.805,101.15 2.989,7.39 4.121,0.6 7.82,-8.07 1.34,-6.25 -2.891,-7.66 -3.964,-0.66 -8.094,8.42 z m -2.734,29.86 -5.652,4.76 c 1.699,4.07 4.234,7.92 7.332,11.59 l 4.258,-3.5 1.394,-5.08 -3.34,-7.25 z m -3.711,-20.84 -4.101,-0.54 -0.684,0.54 c -0.547,2.9 -0.898,5.92 -0.898,9.24 0,2.63 0.324,5.31 0.898,7.93 l 6.426,-5.74 1.308,-5.3 z m 18.047,48.5 -3.23,-7.82 -3.633,-0.49 -1.504,1.65 c 2.539,2.4 5.269,4.64 8.367,6.66 z m 10.605,-33.18 1.399,-5.31 -3.32,-7.71 -3.871,-0.49 -8.231,7.22 -1.394,5.25 3.417,7.71 3.961,0.52 z m -3.417,29.63 4.042,0.49 8.372,-7 1.445,-5.08 -3.957,-8.61 -3.914,-0.47 -8.235,7.28 -1.386,5.08 z m 21.406,13.89 -0.086,-0.55 -4.289,-10.42 -3.633,-0.51 -7.168,7.84 c 4.707,1.73 9.812,2.93 15.176,3.64 z m -3.145,-101.2 -2.383,-9.3 -3.984,-0.74 -9.949,11.64 -1.828,7.63 2.429,9.35 3.989,0.71 9.89,-11.67 z m -0.547,19.1 -9.238,9.77 -1.367,6.23 3.523,9.07 4.028,0.68 9.16,-9.48 1.414,-6.23 -3.527,-9.47 z m 14.793,42.32 1.45,-5.28 -3.887,-8.88 -4.016,-0.52 -9.324,8.2 -1.391,5.28 3.911,8.78 3.984,0.51 z m -3.418,32.24 3.957,0.49 9.297,-7.76 1.446,-5.07 -4.582,-9.39 -4.051,-0.47 -8.797,7.81 -1.43,5.09 z m 19.602,6.66 -1.621,-3.96 -3.711,-0.58 -5.774,5.75 c 3.86,-0.22 7.5,-0.57 11.106,-1.21 z m -0.852,-99.54 -2.886,-10.66 -4.004,-0.79 -10.957,13.17 -1.809,7.55 2.793,10.83 3.965,0.76 11.125,-13.28 z m -0.515,19.94 -10.227,10.6 -1.394,6.18 3.996,10.23 4.043,0.62 10.254,-10.68 1.382,-6.24 -3.98,-10.11 z m 5.605,53.74 10.196,-8.91 1.535,-5.38 -4.297,-10.31 -3.938,-0.49 -10.527,9.24 -1.414,5.27 4.422,10.04 z m 6.692,23.1 c 6.265,-2.04 12.175,-4.87 18.101,-8.66 l -0.242,-1.43 -5.742,-12.1 -4.129,-0.52 -10.527,8.52 -1.536,5.09 z m 18.652,-95.57 -3.281,-12.72 -3.965,-0.7 -12.141,14.52 -1.804,7.62 3.281,12.63 3.933,0.79 12.121,-14.51 z m -10.941,33.46 -1.305,6.21 4.363,11.48 4.055,0.65 11.328,-11.86 1.387,-6.26 -4.426,-11.54 -4.055,-0.57 z m 16.378,43.82 3.997,0.52 11.226,-9.87 1.445,-5.33 -5.211,-12.71 -3.91,-0.49 -11.875,10.38 -1.328,5.34 z m 30.379,-79.01 -3.562,-14.21 -3.985,-0.74 -15.75,18.56 -1.828,7.66 3.606,14.22 3.941,0.76 15.735,-18.62 z m -5.254,60.37 c 4.59,-5.14 9.27,-10.91 14.192,-17.33 l 2.93,-3.83 -0.418,-2.4 -7.754,-14.72 -4.145,-0.1 -12.742,16.29 -0.762,6.31 7.254,14.58 z m 23.372,-34.31 2.187,1.66 c 3.43,-4.59 6.809,-9.34 10.305,-14.29 3.179,-4.4 6.511,-9 9.929,-13.69 l -6.648,-17.67 -3.938,-0.38 -16.589,20.78 -1.262,7.07 z m -161.954,-98.45 -6.367,-2.07 c -2.156,-0.75 -4.465,1.3 -4.101,4.04 l 4.812,40.59 c 0.266,2.71 2.18,5.39 4.184,6.05 2.051,0.55 3.804,-1.15 3.902,-3.93 l 1.203,-38.39 c 0.059,-2.73 -1.609,-5.52 -3.633,-6.29 z m -21.101,-1.47 c -0.332,-2.76 -2.102,-6.13 -3.969,-7.47 l -10.035,-7.35 c -1.848,-1.37 -4.453,1.77 -3.773,4.43 l 14.828,56.54 c 0.652,2.62 2.808,4.37 4.812,3.93 1.926,-0.49 3.379,-3.12 3.059,-5.79 z m -35.981,-31.34 c -5.164,-4.75 -9.793,-6.67 -13.457,-5.57 -10.191,2.95 -4.558,16.86 -3.433,25.37 2.566,17.83 24.273,71.41 24.273,71.41 l 12.981,-3.32 0.8,-0.62 c 1.856,-1.45 2.84,-4.75 2.098,-7.3 l -19.219,-71.71 c -0.711,-2.62 -2.382,-6.72 -4.043,-8.26 z m -25.718,32.54 c -8.75,-37.6 -11.606,-60.59 -11.606,-65.75 0,-5.28 -2.539,-11.23 -5.871,-13.1 l -5.273,-2.3 -5.282,2.3 c -3.308,1.87 -5.828,7.82 -5.828,13.1 0,5.16 -2.894,28.15 -11.644,65.75 -3.801,16.24 -18.535,57.79 -22.223,65.29 -3.66,7.37 -0.113,7.48 -0.113,7.48 0,0 4.383,-1.69 11.461,-2.46 7.054,-0.71 22.519,-1.42 33.629,-1.42 10.66,0 26.617,0.71 33.617,1.42 7.109,0.77 11.484,2.46 11.484,2.46 0,0 3.528,-0.11 -0.105,-7.48 -3.711,-7.5 -18.43,-49.05 -22.246,-65.29 z m 9.089,-414.027 c 4.415,-2.679 6.7,-7.05 5.176,-9.738 -1.609,-2.613 -6.535,-2.613 -10.886,0.063 -4.399,2.734 -6.704,7.082 -5.082,9.789 1.503,2.648 6.425,2.566 10.792,-0.114 z m -8.449,250.097 0.879,0.24 c 0.395,0.09 9.074,2.25 14.438,4.39 6.289,2.56 12.605,7.05 18.347,12.95 l 5.332,5.77 c 4.727,-2.62 19.219,-9.11 40.813,-4.27 7.578,1.75 15.664,6.7 22.801,11.1 4.621,2.88 8.945,5.58 11.511,6.13 l 0.793,0.19 c 6.914,1.67 18.457,4.48 30.703,1.09 3.133,-0.89 6.258,-1.88 9.27,-3.08 -43.82,-29.88 -69.23,-80.49 -70.344,-146.13 -0.664,-32.07 -13.535,-56.102 -25.261,-71.609 -10.2,-5.348 -26.868,-9.95 -35.958,-12.239 l -3.468,-0.66 c -4.422,-0.824 -11.321,-2.086 -19.856,-3.992 z m 0,23.49 0.168,-0.04 c 0.496,-0.05 10.75,-1.52 18.067,1.65 l 6.562,3.04 c -1.824,-3.1 -4.609,-6.81 -8.437,-9.6 -4.051,-2.9 -12.063,-7.17 -15.996,-7.17 h -0.364 z m 33.574,36.6 2.434,-4.26 c 0,0 -7.644,-4.81 -7.371,-2.24 0.352,4.32 4.937,6.5 4.937,6.5 z m 9.766,4.87 2.238,-2.4 -3.222,-2.91 -1.992,4.62 z m 11.074,-8.89 c 1.965,-2.76 -14.461,-11.31 -21.687,-17.74 l -2.832,3.64 c 0.273,4.08 22.004,17.74 24.519,14.1 z m 4.348,-8.39 c 4.211,-0.16 -16.816,-18.56 -19.656,-17.31 l -2.785,3.78 c 9.289,5.71 19.543,13.64 22.441,13.53 z m 12.109,39.65 3.797,-7.39 c 0,0 -5.652,-3.83 -8.64,-0.27 -3.008,3.58 4.843,7.66 4.843,7.66 z m 19.219,6.28 c 1.445,-4.48 -4.68,-7.38 -4.68,-7.38 l -4.343,7.08 c 0,0 7.519,4.73 9.023,0.3 z m 10.496,3.12 c 0,0 12.961,-1.06 18.403,-15.94 0,0 -6.536,-3.31 -15.696,0 0,0 -5.136,-6.02 -12.136,-7.68 -7.051,-1.67 -14.083,-9.63 -15.09,-15.42 -1.121,-5.74 -12.442,0.88 -10.313,10.71 0,0 26.192,6.95 34.832,28.33 z m 42.348,25.2 c 8.394,-2.07 14.324,-7.7 13.211,-12.68 -1.121,-5 -8.977,-7.35 -17.395,-5.3 -8.445,2.02 -14.429,7.76 -13.261,12.68 1.171,4.95 8.937,7.3 17.445,5.3 z m 28.738,-25.99 c 6.453,-3.7 9.863,-9.87 7.766,-13.65 -2.246,-3.91 -9.133,-4.07 -15.481,-0.38 -6.445,3.66 -9.922,9.79 -7.761,13.61 2.168,3.89 9.07,4.11 15.476,0.42 z m -5.332,21.56 c 2.488,4.49 10.586,4.71 17.988,0.42 7.461,-4.24 11.454,-11.35 8.938,-15.83 -2.461,-4.55 -10.527,-4.71 -17.961,-0.44 -7.434,4.27 -11.426,11.37 -8.965,15.85 z m 44.563,-34.12 c 5.679,-5.3 7.847,-12.46 4.707,-15.91 -3.098,-3.44 -10.227,-1.94 -15.95,3.39 -5.761,5.31 -7.851,12.48 -4.726,15.89 3.086,3.45 10.195,1.91 15.969,-3.37 z m -1.399,21.05 c 3.445,3.84 11.289,2.14 17.617,-3.69 6.25,-5.87 8.575,-13.74 5.157,-17.54 -3.438,-3.83 -11.289,-2.11 -17.61,3.68 -6.304,5.91 -8.687,13.73 -5.164,17.55 z m 26.738,-55.6 c -2.675,-1.83 -7.324,0.43 -10.3,5 -2.981,4.62 -3.227,9.82 -0.52,11.62 2.676,1.8 7.266,-0.49 10.242,-5.03 3.047,-4.59 3.235,-9.78 0.578,-11.59 z m 2.657,28.65 c 3.465,2.36 9.425,-0.55 13.371,-6.56 3.844,-5.96 4.148,-12.74 0.703,-15.09 -3.527,-2.36 -9.484,0.6 -13.391,6.57 -3.886,5.95 -4.187,12.73 -0.683,15.08 z m 20.859,-26.84 c 4.668,1.99 11.094,-2.96 14.324,-10.92 3.332,-8.05 2.219,-16.15 -2.515,-18.12 -4.68,-1.97 -11.125,2.9 -14.387,10.94 -3.273,7.98 -2.148,16.12 2.578,18.1 z m 119.751,-38.94 1.47,-1.42 c 6.26,-5.85 22.94,-21.59 37.13,-21.43 10.06,0.16 21.48,6.99 27.88,11.42 0.61,-3.52 1.2,-8.44 1.2,-14.18 0,-9.71 -1.75,-21.57 -8.39,-32.43 l -0.6,-2.1 1.12,-2.9 c 0.6,-0.61 11.24,-11.75 11.24,-30.675 0,-4.593 -0.76,-9.707 -2.32,-15.14 -4.93,-2.301 -22.31,-8.043 -44.44,8.715 l -5.08,-0.215 c -0.71,-0.742 -16.75,-15.199 -39.85,-11.621 4.47,6.347 10.95,17.711 10.95,30.535 0,3.914 -0.57,8.041 -2.05,12.061 -3.6,9.73 -21.96,52.44 -73.948,64.83 -3.77,17.95 -9.832,34.46 -17.715,49.14 54.133,-3.85 89.943,-32.01 103.403,-44.59 z m -95.688,-55.5 c -4.739,-0.18 -8.86,6.35 -9.051,14.56 -0.305,8.14 3.418,14.86 8.113,15.02 4.816,0.17 8.887,-6.36 9.109,-14.48 0.356,-8.23 -3.418,-14.93 -8.171,-15.1 z m 2.89,-18.59 c -1.008,-6.66 -4.98,-11.64 -8.933,-11.011 -3.918,0.57 -6.348,6.472 -5.246,13.261 0.917,6.72 4.941,11.7 8.847,11.04 3.938,-0.54 6.32,-6.48 5.332,-13.29 z m -4.394,-34.332 c -2.598,-7.328 -8.184,-12.031 -12.5,-10.468 -4.258,1.609 -5.633,8.832 -3.008,16.207 2.598,7.297 8.23,12.004 12.488,10.39 4.27,-1.589 5.695,-8.804 3.02,-16.129 z m -16.493,-30.101 c -3.5,-5.738 -9.132,-8.777 -12.492,-6.582 -3.418,2.121 -3.281,8.555 0.215,14.312 3.582,5.797 9.133,8.805 12.488,6.684 3.43,-2.188 3.293,-8.621 -0.211,-14.414 z m -17.667,-27.121 c -4.258,-5.059 -10.11,-7.133 -13.086,-4.567 -3.039,2.676 -1.973,8.805 2.343,13.918 4.192,5.161 10.071,7.164 13.028,4.618 3.027,-2.625 2.011,-8.797 -2.285,-13.969 z m -27.278,8.941 c -2.793,2.403 -1.863,8.363 2.207,13.262 4.082,4.891 9.692,6.801 12.578,4.351 2.825,-2.468 1.836,-8.375 -2.207,-13.242 -4.097,-4.918 -9.707,-6.828 -12.578,-4.371 z m 2.524,-28.16 c -4.192,-3.969 -9.407,-5.219 -11.758,-2.711 -2.414,2.438 -0.93,7.742 3.164,11.844 4.187,3.988 9.441,5.246 11.812,2.793 2.356,-2.52 0.903,-7.801 -3.218,-11.926 z m -20.598,10.141 c -1.875,2.027 -0.773,6.312 2.598,9.597 3.386,3.282 7.597,4.293 9.492,2.297 1.933,-2.086 0.762,-6.312 -2.571,-9.594 -3.359,-3.308 -7.625,-4.351 -9.519,-2.3 z M 900,872.34 c -4.648,-2.735 -9.734,-2.735 -11.316,0 -1.641,2.762 0.742,7.265 5.332,10.109 4.629,2.793 9.617,2.793 11.257,0.051 1.668,-2.809 -0.742,-7.297 -5.273,-10.16 z m -21.738,236.37 c -0.789,-2.87 -2.422,-12.14 -7.129,-10.12 -4.817,2.02 -6.746,6.89 -6.746,11.76 0,4.87 -0.371,13.78 0,17.39 0.34,4.81 3.543,7.65 8.718,6.42 5.157,-1.2 9.915,-6.07 9.18,-10.03 -0.82,-4.11 -3.262,-12.63 -4.023,-15.42 z m 13.125,-22.25 c -2.434,-3.23 -7.981,0.43 -9.922,3.66 -2.024,3.25 -0.418,10.93 0.351,13.76 0.829,2.8 5.555,18.17 5.555,18.17 2.402,5.25 11.945,0.82 16.379,-3.25 4.316,-4.02 6.719,-10.09 5.078,-12.53 -1.531,-2.39 -15.09,-16.56 -17.441,-19.81 z m 38.586,-7.25 c -3.645,-2.08 -15.102,-10.14 -21.145,-13.78 -5.93,-3.63 -10.332,4.89 -13.066,8.94 -2.84,4.04 -2.024,7.24 -0.41,8.86 l 17.089,17.82 c 7.137,6.08 16.329,-8.09 18.645,-11.75 2.43,-3.67 2.43,-8.09 -1.113,-10.09 z m 10.679,-6.92 c 2.161,-4.15 3.559,-11.67 3.196,-15.74 -0.325,-2.82 -2.43,-4.49 -5.578,-5.64 -3.172,-1.2 -11.942,-2.41 -18.692,-4.46 -6.734,-2.04 -9.519,2.41 -10.332,6.87 -0.723,4.43 1.606,7.66 4.777,9.71 3.172,2.05 14.54,8.33 19.082,10.91 3.555,2.02 6.407,0.59 7.547,-1.65 z m 9.543,6.12 c -4.179,-1.8 -10.097,2.68 -13.047,9.9 -2.918,7.3 -1.875,14.6 2.364,16.44 4.258,1.82 10.129,-2.6 13.039,-9.94 2.976,-7.23 1.961,-14.59 -2.356,-16.4 z m 12.442,-24.65 c -3.035,-0.94 -6.867,2.46 -8.504,7.71 -1.582,5.24 -0.473,10.33 2.683,11.31 3.028,1.04 6.797,-2.46 8.438,-7.7 1.648,-5.26 0.469,-10.37 -2.617,-11.32 z m -1.621,-57.276 c -3.055,0.457 -4.895,4.996 -4.18,10.196 0.852,5.2 3.918,8.97 6.894,8.55 3.086,-0.46 4.844,-5.05 4.102,-10.19 -0.742,-5.192 -3.828,-9.024 -6.816,-8.556 z m -10.442,-30.699 c -3.886,1.414 -5.136,7.981 -2.761,14.653 2.382,6.671 7.5,10.875 11.32,9.453 3.914,-1.446 5.144,-7.989 2.793,-14.621 -2.375,-6.676 -7.461,-10.915 -11.352,-9.485 z m -10.144,-11.93 c 2.656,4.434 6.972,6.731 9.582,5.094 2.617,-1.644 2.539,-6.617 -0.168,-11.051 -2.656,-4.425 -7.031,-6.777 -9.602,-5.085 -2.547,1.644 -2.515,6.562 0.188,11.042 z m 5.664,57.855 c 0,-2.95 -0.442,-6.67 -3.281,-6.67 -2.872,0 -21.79,1.53 -26.739,1.97 -2.844,0.27 -2.429,6.72 -2.051,9.62 0.379,2.98 2.051,3.83 4.102,3.83 0,0 20.969,0.06 25.066,-0.33 4.164,-0.44 2.903,-5.47 2.903,-8.42 z m 0.058,22.2 c 0,-4.87 -0.578,-9.35 -4.55,-9.35 -3.907,0 -19.637,0.44 -24.407,0.44 -4.754,0 -3.914,6.06 -3.914,10.08 0,4.07 3.914,6.89 7.11,7.31 2.734,0.32 17.031,3.08 19.851,3.22 7.113,0.43 5.91,-6.89 5.91,-11.7 z m -33.41,-44.344 c -2.73,0.711 -1.289,6.829 -0.418,9.571 0.957,2.733 2.571,3.253 4.602,2.903 0,0 20.664,-1.26 24.492,-2.411 3.887,-1.039 1.668,-8.094 1.227,-10.887 -0.543,-2.844 -1.5,-6.371 -4.317,-5.851 -2.703,0.445 -20.933,5.425 -25.586,6.675 z m 15.559,-25.312 c -6.289,2.121 -20.266,7.32 -22.5,8.422 -2.5,1.304 0.847,14.379 7.043,12.793 6.648,-1.664 20.894,-7.223 20.894,-7.223 3.282,-1.258 4.59,-3.832 3.684,-7.219 -0.82,-3.39 -2.859,-8.961 -9.121,-6.773 z m -29.09,-8.973 c -2.734,2.024 -3.938,4.481 -1.965,7.711 1.965,3.223 4.199,6.391 7.813,5.192 3.546,-1.262 14.074,-4.485 22.668,-8.473 6.777,-3.281 1.961,-10.172 -0.414,-13.777 -2.379,-3.664 -4.403,-4.485 -7.594,-2.848 -3.156,1.586 -17.727,10.172 -20.508,12.195 z m -9.543,-14.543 c -2.109,2.52 -2.539,5.356 -0.41,8.262 2.234,3.168 4.07,5.598 7.07,3.711 3.125,-1.992 12.473,-7.059 19.473,-12.848 5.578,-4.593 -0.442,-9.785 -3.477,-12.633 -2.976,-2.792 -5.027,-3.035 -7.629,-0.789 -2.566,2.215 -12.898,11.754 -15.027,14.297 z m -4.68,-31.656 c -2.039,2.461 -7.715,16.016 -9.019,18.863 -1.34,2.844 -0.52,5.383 2.984,8.582 3.692,3.336 5.156,3.907 7.27,2.348 4.644,-3.555 13.34,-13.855 15.039,-15.902 1.718,-1.973 -0.942,-6.621 -3.75,-8.864 -2.739,-2.191 -10.383,-7.464 -12.524,-5.027 z m 1.86,-12.359 c 4.238,2.574 8.804,2.574 10.254,0 1.543,-2.516 -0.657,-6.563 -4.868,-9.129 -4.148,-2.516 -8.75,-2.516 -10.203,0 -1.465,2.508 0.614,6.613 4.817,9.129 z m -27.91,32.226 c -1.145,7.086 -1.797,14.793 -1.797,23.11 0,29.957 6.875,74.251 43.379,97.901 2.507,-8.94 5.933,-21.88 4.175,-36.2 -1.851,-15.717 -3.711,-25.752 -8.711,-37.072 -4.597,-10.633 -13.179,-23.977 -20.488,-31.743 -4.726,-5.082 -10.711,-10.882 -16.558,-15.996 z m 6.609,-5.054 c 2.734,1.64 5.937,3.121 7.519,0.25 1.59,-2.875 5.887,-11.403 9.579,-18.786 1.875,-3.718 -2.442,-6.617 -6.571,-8.421 -3.406,-1.469 -5.793,-0.762 -6.941,2.132 -1.113,2.903 -6.203,14.055 -6.914,16.985 -0.93,3.961 -0.078,5.761 3.328,7.84 z m 107.422,156.715 c 4.011,1.25 8.933,-3.23 11.074,-10.06 2.102,-6.84 0.625,-13.46 -3.418,-14.69 -3.965,-1.31 -8.914,3.2 -11.074,10.03 -2.11,6.84 -0.574,13.43 3.418,14.72 z m -3.906,-45.74 c 0.222,-7.47 -3.094,-13.54 -7.442,-13.7 -4.375,-0.13 -8.008,5.77 -8.281,13.18 -0.195,7.38 3.176,13.5 7.414,13.67 4.391,0.16 8.062,-5.75 8.309,-13.15 z m -128.145,81.06 c -11.453,10.88 -9.934,28.73 10.664,22.53 3.777,-1.16 7.629,-5.42 7.629,-14 v -15.47 c 0,-3.95 -6.856,-3.95 -18.293,6.94 z m 7.961,-347.262 c 0,-73.98 57.215,-131.891 130.152,-131.891 74.669,0 104.389,63.106 104.689,63.758 l -1.15,4.922 c -0.05,0.059 -4.59,3.77 -9.22,10.117 -6.55,7.735 -10.03,17.278 -10.03,27.125 0,22.824 18.21,41.383 40.61,41.383 13.82,0 24.62,-4.613 32.03,-13.559 6.92,-8.367 10.55,-20.476 10.55,-34.937 0,-60.148 -60.51,-147.082 -170.018,-147.082 -38.765,0 -88.738,6.621 -131.258,58.555 -30.339,35 -44.257,91.808 -49.754,122.64 -8.07,51.024 -35.792,78.465 -46.585,87.387 11.457,10.027 42.921,42.039 43.937,95.023 1.113,65.671 26.328,114.881 70.691,142.661 5.586,-2.68 10.149,-5.64 12.832,-8.31 4.883,-5.01 16.704,-19.85 21.379,-28.93 -31.433,-19.58 -48.586,-55.72 -48.586,-105.471 0,-57.414 28.926,-86.258 40.051,-95.254 -10.793,-10.231 -40.32,-42.157 -40.32,-88.137 z m -93.664,44.535 c -5.774,-2.297 -11.453,-1.344 -12.82,2.106 -1.399,3.496 2.246,8.148 7.949,10.437 5.801,2.356 11.511,1.449 12.859,-2.074 1.309,-3.442 -2.246,-8.176 -7.988,-10.469 z m 6.789,-27.59 c 3.269,-4.32 3.875,-9.425 1.387,-11.371 -2.524,-1.992 -7.246,-0.113 -10.469,4.125 -3.344,4.352 -3.918,9.434 -1.399,11.434 2.508,1.992 7.129,0.082 10.481,-4.188 z m 10.926,-35.187 c 1.472,-5.488 0.019,-10.766 -3.164,-11.637 -3.235,-0.902 -7.063,2.863 -8.567,8.441 -1.441,5.469 -0.054,10.665 3.176,11.598 3.223,0.902 7.051,-2.848 8.555,-8.402 z m 3.281,-33.649 c -0.391,-5.254 -3.203,-9.238 -6.199,-8.964 -3.02,0.3 -5.176,4.695 -4.739,9.839 0.411,5.141 3.235,9.161 6.211,8.911 3.036,-0.274 5.157,-4.645 4.727,-9.786 z M 761.66,686.543 c -2.18,-4.98 -6.308,-7.988 -9.226,-6.621 -2.93,1.316 -3.489,6.453 -1.321,11.375 2.188,5.09 6.336,7.988 9.239,6.672 2.902,-1.321 3.554,-6.399 1.308,-11.426 z m -14.324,6.746 c -1.848,-4.285 -5.383,-6.805 -7.934,-5.711 -2.449,1.121 -2.996,5.574 -1.109,9.844 1.852,4.266 5.469,6.836 7.867,5.683 2.578,-1.085 3.117,-5.5 1.176,-9.816 z m -2.59,-31.687 c -2.898,-3.606 -6.926,-5.079 -9.082,-3.332 -2.078,1.757 -1.445,6.066 1.477,9.679 2.871,3.614 6.953,5.164 9.019,3.34 2.16,-1.699 1.535,-6.047 -1.414,-9.687 z m -2.351,-37.668 c -2.524,-2.567 -8.04,-0.985 -12.192,3.39 -4.219,4.422 -5.476,10.117 -2.906,12.625 2.598,2.403 8.035,0.93 12.246,-3.437 4.102,-4.492 5.477,-10.059 2.852,-12.578 z m 9.265,-24.004 c -2.765,-1.805 -7.43,0.383 -10.281,4.972 -2.895,4.59 -2.949,9.735 -0.109,11.641 2.824,1.758 7.414,-0.43 10.332,-5.031 2.878,-4.532 2.929,-9.785 0.058,-11.582 z m 6.594,-4.434 c 3.465,0.938 7.516,-3.055 9.18,-8.965 1.668,-5.847 0.132,-11.531 -3.286,-12.441 -3.464,-1.004 -7.593,2.988 -9.207,8.887 -1.64,5.957 -0.086,11.535 3.313,12.519 z m 6.531,-58.808 c -1.015,-5.489 -4.433,-9.481 -7.605,-8.829 -3.149,0.606 -5,5.547 -3.996,10.95 0.996,5.515 4.406,9.48 7.558,8.894 3.223,-0.594 5,-5.515 4.043,-11.015 z m -15.422,-24.676 c -2.156,-4.981 -6.343,-7.91 -9.402,-6.563 -3.098,1.367 -3.828,6.446 -1.746,11.504 2.129,4.949 6.289,7.899 9.422,6.543 3.039,-1.379 3.808,-6.484 1.726,-11.484 z m -1.726,58.691 c -2.949,-0.84 -6.504,2.598 -7.891,7.625 -1.406,5.117 -0.144,9.953 2.832,10.801 2.957,0.793 6.504,-2.598 7.883,-7.684 1.414,-5.078 0.152,-9.894 -2.824,-10.742 z m 1.308,-31.328 c -0.847,-4.707 -3.769,-8.117 -6.496,-7.57 -2.761,0.519 -4.297,4.758 -3.504,9.453 0.926,4.648 3.809,8.144 6.543,7.597 2.754,-0.535 4.367,-4.804 3.457,-9.48 z m -0.703,21.465 c -0.41,4.422 1.504,8.133 4.192,8.445 2.632,0.215 5.156,-3.125 5.593,-7.519 0.364,-4.325 -1.504,-8.094 -4.211,-8.309 -2.656,-0.273 -5.195,3.055 -5.574,7.383 z m -14.219,-1.32 c -0.41,4.425 1.457,8.144 4.192,8.418 2.703,0.246 5.164,-3.055 5.574,-7.489 0.441,-4.316 -1.484,-8.086 -4.187,-8.332 -2.649,-0.273 -5.188,3.078 -5.579,7.403 z m -1.14,-40.243 c -1.977,-4.699 -6.059,-7.492 -8.945,-6.23 -2.954,1.258 -3.665,6.152 -1.641,10.879 2.019,4.754 5.984,7.547 8.941,6.289 2.922,-1.34 3.633,-6.203 1.645,-10.938 z m -2.824,-26.347 c -3.118,-4.082 -7.657,-5.637 -10.137,-3.692 -2.461,1.992 -1.926,6.856 1.199,10.907 3.137,4.043 7.68,5.636 10.117,3.613 2.512,-2 1.992,-6.844 -1.179,-10.828 z m 30.625,-30.02 c 1.582,-5.859 -5.196,-8.203 -24.368,-6.23 -21.843,2.207 -68.449,17.351 -74.273,24.187 -5.855,6.778 16.285,16.973 33.738,5.117 29.004,-19.746 63.008,-16.082 64.903,-23.074 z m -67.305,-22.422 c -2.168,-9.738 -9.496,-12.359 -12.859,-9.738 -3.254,2.629 -3.254,6.348 -3.254,11.543 v 21.211 l 2.05,0.5 c 5.301,-2.082 10.391,-3.887 15.34,-5.481 -0.222,-8.523 -0.633,-15.351 -1.277,-18.035 z m -98.813,21.68 c -3.3,6.785 4.266,9.051 26.493,11.641 10.558,1.211 20.504,3.093 28.218,4.843 6.668,-3.996 13.555,-7.55 20.364,-10.617 -23.75,-4.656 -71.52,-13.035 -75.075,-5.867 z m 46.532,36.445 c -2.602,-1.699 -6.918,0.274 -9.707,4.403 -2.762,4.238 -2.86,9.121 -0.293,10.851 2.625,1.746 6.972,-0.246 9.703,-4.426 2.758,-4.179 2.922,-9.023 0.297,-10.828 z m -15.368,37.235 c 2.278,1.425 5.958,-0.606 8.34,-4.375 2.332,-3.907 2.407,-8.145 0.2,-9.629 -2.278,-1.446 -6.016,0.547 -8.395,4.465 -2.359,3.847 -2.469,8.113 -0.145,9.539 z m -3.195,-22.696 c -2.562,-1.64 -6.972,0.578 -9.699,5.118 -2.738,4.484 -2.793,9.425 -0.199,11.125 2.601,1.64 6.968,-0.657 9.734,-5.079 2.766,-4.543 2.844,-9.523 0.164,-11.164 z m -9.156,38.547 c 2.566,0.828 5.68,-1.945 6.973,-6.066 1.253,-4.238 0.16,-8.36 -2.438,-9.07 -2.598,-0.821 -5.707,1.914 -6.937,6.093 -1.258,4.239 -0.2,8.282 2.402,9.043 z m -6.668,2.188 c -3.426,-0.383 -6.707,3.914 -7.359,9.734 -0.629,5.801 1.531,10.832 4.921,11.211 3.364,0.41 6.704,-3.934 7.305,-9.727 0.703,-5.8 -1.535,-10.8 -4.867,-11.218 z m 2.019,61.738 c 2.133,5.684 6.668,9.297 9.954,7.93 3.39,-1.321 4.265,-7.012 2.078,-12.805 -2.223,-5.684 -6.731,-9.238 -10.039,-7.859 -3.364,1.355 -4.239,7.05 -1.993,12.734 z m 10.633,61.727 c -2.543,3.398 -3.058,7.492 -1.008,9.023 1.961,1.535 5.684,0 8.282,-3.387 2.543,-3.449 3.058,-7.461 1.015,-9.023 -1.972,-1.621 -5.718,0 -8.289,3.387 z m -0.961,-11.914 c -2.152,-1.7 -6.285,0 -9.148,3.71 -2.816,3.782 -3.363,8.254 -1.149,10.032 2.243,1.668 6.309,0 9.157,-3.742 2.84,-3.77 3.328,-8.309 1.14,-10 z m -17.625,54.835 c -2.816,0.223 -4.785,4.352 -4.351,9.301 0.437,4.864 3.09,8.574 5.933,8.313 2.844,-0.227 4.809,-4.383 4.403,-9.25 -0.41,-4.918 -3.117,-8.657 -5.985,-8.364 z m 2.438,-31.437 c -3.211,-0.984 -7.164,2.57 -8.891,8.008 -1.695,5.527 -0.469,10.754 2.731,11.789 3.175,1.004 7.144,-2.539 8.836,-8.039 1.722,-5.469 0.488,-10.723 -2.676,-11.758 z m -12.391,61.32 c -3.34,1.207 -4.316,6.914 -2.293,12.555 2.074,5.73 6.473,9.344 9.805,8.09 3.312,-1.262 4.297,-6.891 2.328,-12.574 -2.101,-5.75 -6.449,-9.411 -9.84,-8.071 z m -4.125,-29.824 c -3.148,0.324 -5.304,4.867 -4.812,10.223 0.461,5.355 3.418,9.566 6.48,9.269 3.16,-0.304 5.379,-4.918 4.836,-10.25 -0.465,-5.41 -3.394,-9.547 -6.504,-9.242 z m 7.817,71.188 c 2.625,5.468 7.297,8.644 10.5,7 3.187,-1.532 3.683,-7.293 1.035,-12.739 -2.594,-5.468 -7.328,-8.664 -10.5,-7 -3.223,1.532 -3.692,7.332 -1.035,12.739 z m -6.7,29.031 c 0.817,3.554 6.262,5.195 12.051,3.722 5.824,-1.449 9.852,-5.41 8.996,-8.914 -0.843,-3.546 -6.23,-5.195 -12,-3.773 -5.851,1.445 -9.867,5.473 -9.047,8.965 z m -6.671,42.324 c -4.485,1.531 -7.438,4.922 -6.59,7.656 0.828,2.68 5.226,3.774 9.707,2.242 4.511,-1.476 7.461,-4.804 6.582,-7.539 -0.809,-2.765 -5.192,-3.781 -9.699,-2.359 z m -5.547,-18.641 c -5.41,1.743 -8.918,5.735 -7.93,9.016 1.031,3.281 6.238,4.512 11.586,2.734 5.394,-1.777 8.891,-5.789 7.875,-9.078 -1.035,-3.226 -6.199,-4.426 -11.531,-2.672 z m -5.66,-18.757 c -6.231,2.078 -10.282,6.832 -9.079,10.55 1.149,3.774 7.192,5.192 13.454,3.118 6.21,-2.02 10.277,-6.778 9.105,-10.551 -1.176,-3.692 -7.223,-5.196 -13.48,-3.117 z m -17.227,36.851 c -4.598,2.106 -7.297,6.121 -6.129,8.91 1.27,2.793 6.106,3.336 10.648,1.153 4.645,-2.137 7.372,-6.121 6.09,-8.887 -1.203,-2.816 -5.984,-3.359 -10.609,-1.176 z m 5.059,-14.707 c -1.391,-3.09 -6.696,-3.715 -11.809,-1.316 -5.223,2.414 -8.203,6.867 -6.813,9.953 1.372,3.062 6.704,3.691 11.813,1.312 5.113,-2.429 8.18,-6.859 6.809,-9.949 z m -5.661,-15.859 c -1.472,-3.418 -7.324,-4.098 -12.984,-1.414 -5.691,2.648 -9.047,7.488 -7.543,10.906 1.586,3.414 7.434,4.121 13.121,1.449 5.656,-2.633 8.992,-7.547 7.406,-10.941 z m -29.113,33.988 c -4.976,2.754 -7.715,7.461 -6.066,10.52 1.582,3.066 6.965,3.23 11.972,0.437 4.977,-2.816 7.762,-7.543 6.094,-10.551 -1.613,-3.008 -7,-3.226 -12,-0.406 z m 4.863,-17.031 c -1.836,-3.555 -8.175,-3.719 -13.949,-0.555 -5.812,3.289 -8.984,8.75 -7.125,12.305 1.914,3.504 8.141,3.719 13.996,0.469 5.824,-3.176 8.992,-8.731 7.078,-12.219 z m -23.046,22.746 c -2.071,-2.961 -7.708,-2.52 -12.625,1.035 -4.891,3.555 -7.25,8.797 -5.114,11.813 2.024,2.941 7.711,2.484 12.606,-1.043 4.863,-3.579 7.16,-8.864 5.133,-11.805 z m -8.829,-15.016 c -2.168,-3.086 -8.07,-2.652 -13.203,1.071 -5.168,3.746 -7.593,9.265 -5.359,12.41 2.156,3.066 8.098,2.597 13.207,-1.153 5.164,-3.714 7.57,-9.238 5.355,-12.328 z m -21.953,19.059 c -2.894,-3.168 -9.488,-1.672 -14.793,3.25 -5.218,5 -7.133,11.597 -4.211,14.765 2.903,3.2 9.516,1.719 14.715,-3.281 5.301,-5 7.211,-11.535 4.289,-14.734 z m -29.82,12.144 c -3.254,-2.793 -9.684,-0.554 -14.277,4.969 -4.676,5.574 -5.762,12.356 -2.539,15.141 3.281,2.847 9.617,0.605 14.21,-4.969 4.68,-5.527 5.829,-12.359 2.606,-15.141 z m -37.629,33.461 c -4.586,7.321 -4.727,15.582 -0.43,18.309 4.258,2.789 11.453,-0.981 16.043,-8.309 4.516,-7.379 4.7,-15.586 0.434,-18.371 -4.309,-2.683 -11.477,1.012 -16.047,8.371 z m -3.769,51.035 c 3.91,1.973 9.671,-1.992 12.878,-8.722 3.164,-6.746 2.536,-13.778 -1.398,-15.746 -3.91,-1.86 -9.73,2.019 -12.906,8.828 -3.141,6.699 -2.539,13.762 1.426,15.64 z m -7.133,-35.507 c -4.375,-2.133 -10.746,2.175 -14.219,9.648 -3.469,7.465 -2.816,15.231 1.531,17.363 4.371,2.071 10.742,-2.277 14.219,-9.738 3.469,-7.383 2.785,-15.144 -1.531,-17.273 z m -21.758,51.937 c -1.813,8.914 0.922,17.012 6.168,18.102 5.176,1.14 10.91,-5.2 12.824,-14.11 1.754,-8.937 -0.957,-17.113 -6.23,-18.207 -5.164,-1.086 -10.903,5.254 -12.762,14.215 z m -4.109,20.882 c -5.11,-0.18 -9.481,6.62 -9.895,15.27 -0.355,8.69 3.422,15.88 8.473,16.09 5.082,0.25 9.492,-6.58 9.867,-15.28 0.363,-8.64 -3.414,-15.79 -8.445,-16.08 z m -94.891,-57.401 c 0,-57.414 28.949,-86.258 40.133,-95.254 -10.825,-10.231 -40.375,-42.157 -40.375,-88.137 0,-72.398 55.961,-127 130.242,-127 63.887,0 93.414,58.164 93.746,58.762 l -1.129,5.027 c -0.051,0.059 -4.613,3.77 -9.262,10.117 -6.507,7.735 -9.98,17.278 -9.98,27.125 0,22.824 18.207,41.383 40.652,41.383 13.59,0 24.055,-4.453 31.168,-13.121 6.645,-8.09 10.082,-19.898 10.082,-34.008 0,-60.586 -61.508,-148.449 -157.855,-148.449 -38.789,0 -88.77,6.621 -131.25,58.555 -30.43,35 -44.293,91.808 -49.864,122.64 -7.929,51.024 -35.683,78.465 -46.472,87.387 11.449,10.027 42.801,42.039 43.875,95.023 1.801,105.481 65.769,168.461 171.137,168.461 61.187,0 101.429,-31.44 115.871,-45 l 1.492,-1.42 c 6.262,-5.85 22.887,-21.59 37.023,-21.43 10.117,0.16 21.52,6.99 27.891,11.42 0.703,-3.52 1.281,-8.44 1.281,-14.18 0,-9.76 -1.781,-21.57 -8.445,-32.43 l -0.61,-2.1 1.153,-2.9 c 0.605,-0.61 11.234,-11.75 11.234,-30.675 0,-4.593 -0.797,-9.707 -2.297,-15.14 -4.976,-2.301 -22.308,-8.043 -44.457,8.715 l -5.051,-0.215 c -0.746,-0.742 -16.867,-15.199 -39.917,-11.621 4.511,6.347 10.996,17.711 10.996,30.535 0,3.914 -0.582,8.041 -2.118,12.061 -4.125,11.42 -28.671,68.24 -103.91,68.24 -73.074,0 -114.984,-44.63 -114.984,-122.371 z m 129.453,184.481 c 5.707,5.3 12.844,6.84 15.961,3.36 2.629,-2.92 1.504,-8.51 -2.375,-13.36 -6.074,0.98 -12.438,1.66 -19.031,1.96 0.965,2.68 2.758,5.61 5.445,8.04 z m 22.934,30.95 c 6.23,5.79 14.218,7.49 17.578,3.69 3.468,-3.8 1.121,-11.64 -5.164,-17.5 -6.293,-5.87 -14.192,-7.52 -17.614,-3.74 -3.414,3.79 -1.089,11.7 5.2,17.55 z m 32.156,-14 c 3.117,-3.45 0.973,-10.55 -4.703,-15.88 -5.746,-5.34 -12.86,-6.83 -15.969,-3.34 -3.113,3.47 -1.016,10.58 4.703,15.89 5.715,5.3 12.875,6.83 15.969,3.33 z m 10.629,31.22 c 7.433,4.26 15.449,4.07 17.933,-0.43 2.493,-4.43 -1.504,-11.58 -8.941,-15.8 -7.41,-4.33 -15.496,-4.16 -17.988,0.41 -2.489,4.39 1.504,11.59 8.996,15.82 z m 28.105,-22.36 c 2.168,-3.89 -1.32,-10.06 -7.738,-13.73 -6.395,-3.66 -13.289,-3.5 -15.441,0.41 -2.192,3.86 1.281,10.04 7.675,13.7 6.403,3.61 13.34,3.45 15.504,-0.38 z m 13.285,26.35 c 8.454,2.02 16.243,-0.32 17.387,-5.3 1.149,-4.97 -4.762,-10.64 -13.203,-12.69 -8.477,-2.07 -16.297,0.33 -17.445,5.29 -1.118,5 4.757,10.63 13.261,12.7 z m 42.325,-25.2 c 8.636,-21.46 34.8,-28.32 34.8,-28.32 2.188,-9.9 -9.183,-16.47 -10.25,-10.72 -1.039,5.8 -8.066,13.77 -15.093,15.39 -7.032,1.67 -12.161,7.68 -12.161,7.68 -9.191,-3.28 -15.64,0 -15.64,0 5.387,14.87 18.344,15.97 18.344,15.97 z m 19.488,-3.4 -4.258,-7.1 c 0,0 -6.207,2.96 -4.707,7.38 1.496,4.43 8.965,-0.28 8.965,-0.28 z m 10.223,-5.96 c 0,0 7.824,-4.1 4.847,-7.71 -2.984,-3.55 -8.644,0.31 -8.644,0.31 z m -94.614,-24.9 c -1.832,3.2 1.035,8.34 6.446,11.45 5.336,3.12 11.132,2.88 12.988,-0.33 1.754,-3.22 -1.117,-8.36 -6.481,-11.42 -5.437,-3.12 -11.152,-2.95 -12.953,0.3 z m -19.086,-7.68 c -5.14,-4.76 -11.617,-6.07 -14.382,-3.01 -2.786,3.17 -0.926,9.49 4.242,14.27 5.086,4.79 11.531,6.13 14.324,3.07 2.816,-3.12 0.902,-9.52 -4.184,-14.33 z m 6.075,-6.07 c 4.535,4.21 10.164,5.42 12.652,2.68 2.516,-2.71 0.793,-8.4 -3.742,-12.63 -4.512,-4.21 -10.172,-5.41 -12.719,-2.63 -2.434,2.73 -0.762,8.32 3.809,12.58 z m 36.218,-213.252 c -3.718,2.688 -5.437,6.617 -3.906,8.918 1.59,2.246 5.797,1.86 9.52,-0.816 3.714,-2.66 5.461,-6.672 3.898,-8.91 -1.523,-2.246 -5.855,-1.86 -9.512,0.808 z m -14.16,-4.527 c 1.754,2.562 6.59,2.129 10.746,-0.934 4.207,-3.007 6.125,-7.461 4.399,-10.039 -1.797,-2.48 -6.614,-2.093 -10.801,0.914 -4.149,2.996 -6.121,7.508 -4.344,10.059 z m -13.562,23.457 c 2.074,2.293 6.808,1.258 10.609,-2.301 3.77,-3.554 5.172,-8.371 3.086,-10.66 -2.102,-2.246 -6.887,-1.262 -10.637,2.348 -3.793,3.609 -5.191,8.312 -3.058,10.613 z m -14.703,-13.836 c 2.539,2.727 8.167,1.477 12.71,-2.793 4.512,-4.266 6.149,-9.949 3.598,-12.684 -2.449,-2.734 -8.141,-1.48 -12.621,2.79 -4.508,4.32 -6.129,9.953 -3.687,12.687 z M 457.434,931.5 c 2.601,2.348 7.82,0.516 11.593,-3.996 3.77,-4.531 4.703,-10.059 2.051,-12.352 -2.648,-2.25 -7.816,-0.441 -11.613,4.043 -3.781,4.539 -4.684,10.063 -2.031,12.305 z m -15.012,-11.84 c 2.894,2.539 8.668,0.52 12.906,-4.508 4.266,-5.093 5.254,-11.211 2.328,-13.722 -2.949,-2.578 -8.777,-0.582 -12.988,4.531 -4.207,4.973 -5.215,11.156 -2.246,13.699 z m -15.242,31.164 c 3.679,2.356 9.832,-0.875 13.777,-7.187 3.93,-6.344 4.066,-13.399 0.406,-15.746 -3.668,-2.356 -9.843,0.816 -13.781,7.156 -3.937,6.348 -4.102,13.398 -0.402,15.777 z m -4.551,29.879 c 3.531,1.781 8.676,-1.742 11.543,-7.816 2.84,-6.012 2.266,-12.356 -1.234,-14.051 -3.583,-1.746 -8.766,1.809 -11.59,7.812 -2.836,6.028 -2.27,12.45 1.281,14.055 z m 9.465,9.41 c -3.637,-0.793 -7.547,3.606 -8.828,9.735 -1.262,6.172 0.652,11.702 4.175,12.462 3.668,0.77 7.602,-3.61 8.832,-9.74 1.262,-6.117 -0.628,-11.691 -4.179,-12.457 z m 1.886,28.487 c -3.476,-0.14 -6.539,4.56 -6.8,10.53 -0.285,5.93 2.347,10.85 5.843,11.01 3.469,0.17 6.504,-4.54 6.758,-10.44 0.262,-5.96 -2.359,-10.91 -5.801,-11.1 z m 18.672,-36.229 c 2.575,-5.383 2.055,-10.957 -1.093,-12.488 -3.153,-1.535 -7.735,1.586 -10.227,6.941 -2.539,5.364 -2.07,10.934 1.09,12.496 3.148,1.559 7.715,-1.609 10.23,-6.949 z m 7.516,-39.387 c -3.141,-2.035 -8.309,0.707 -11.617,6.016 -3.254,5.324 -3.418,11.203 -0.328,13.168 3.121,1.973 8.285,-0.68 11.562,-5.957 3.285,-5.305 3.418,-11.234 0.383,-13.227 z m 22.527,-3.121 c 3.301,-4.078 4.184,-8.941 1.836,-10.933 -2.324,-2.028 -6.968,-0.496 -10.336,3.527 -3.304,4.023 -4.101,8.938 -1.746,10.961 2.285,1.961 6.942,0.41 10.246,-3.555 z m -8.824,20.723 c -14.633,18.348 -26.437,41.854 -26.437,66.194 0,8.39 1.062,15.88 2.808,22.6 22.86,-15.36 32.785,-37.01 36.121,-46 6.907,-19.118 -11.32,-39.454 -11.484,-39.681 z m -55.719,95.634 2.512,6.29 c 3.508,-0.94 6.777,-2 10.012,-3.12 l -0.113,-5.53 c -1.122,-5.84 -4.672,-10.11 -8.122,-9.45 -3.414,0.65 -5.355,5.9 -4.289,11.81 z m -5.609,-40.4 c -3.93,-0.17 -7.324,5.13 -7.621,11.86 -0.281,6.72 2.644,12.3 6.504,12.46 3.996,0.17 7.429,-5.14 7.679,-11.8 0.329,-6.79 -2.597,-12.34 -6.562,-12.52 z m -8.688,-6.68 c 4.321,0.88 8.989,-4.26 10.438,-11.597 1.531,-7.32 -0.734,-13.992 -4.973,-14.922 -4.261,-0.867 -8.968,4.262 -10.472,11.617 -1.504,7.362 0.715,13.972 5.007,14.902 z m -9.187,51.01 2.055,5.9 c 4.472,-0.21 8.66,-0.67 12.73,-1.25 0.442,-2.19 0.469,-4.75 0.035,-7.37 -1.297,-6.95 -5.633,-12.07 -9.652,-11.33 -4.109,0.82 -6.402,7.11 -5.168,14.05 z m -17.523,-12.3 c -4.739,0.93 -7.383,8.2 -5.938,16.35 l 0.219,0.99 c 5.469,0.59 11.179,0.93 17.34,1.04 l -0.387,-5.25 c -1.477,-8.1 -6.449,-14.01 -11.234,-13.13 z m 12.839,-7.71 c 4.352,0.17 8.153,-5.74 8.508,-13.2 0.274,-7.52 -2.972,-13.7 -7.324,-13.92 -4.375,-0.21 -8.203,5.75 -8.508,13.24 -0.324,7.43 2.926,13.72 7.324,13.88 z M 542.191,883.656 c -1.453,-2.566 -5.882,-2.761 -10.089,-0.386 -4.243,2.296 -6.504,6.23 -5.09,8.804 1.367,2.516 5.82,2.711 10.004,0.383 4.238,-2.355 6.504,-6.34 5.175,-8.801 z m 26.704,-4.32 c -1.063,-2.469 -5.282,-2.926 -9.379,-1.035 -4.071,1.914 -6.473,5.457 -5.379,7.918 1.062,2.469 5.277,2.902 9.375,1.035 4.125,-1.852 6.484,-5.402 5.383,-7.918 z m 53.554,209.684 0.246,0.16 1.618,2.09 c 4.316,-5.06 16.101,-17.39 29.917,-20.95 V 862.875 c -16.687,5.629 -33.66,10.883 -49.843,15.5 -51.207,14.906 -89.676,42.738 -112.946,63.461 -4.918,4.398 -9.871,9.508 -14.648,15.199 25.293,-7.273 44.562,5.133 51.039,10.141 28.789,-20.039 51.047,-7.414 52.031,-6.817 l 1.809,2.278 c 2.121,7 3.023,13.476 3.023,19.265 0,17.559 -7.871,29.418 -11.644,34.098 6.375,11.62 8.344,23.87 8.344,33.96 0,12.5 -2.707,21.68 -2.926,22.33 l -2.684,2.74 -3.691,-0.77 c -0.137,-0.11 -16.18,-13.24 -28.024,-13.34 -10.933,-0.22 -26.41,14.43 -31.574,19.27 l -1.449,1.37 c -4.625,4.3 -11.75,10.4 -21.188,16.82 10.059,5.08 20.098,7.38 27.668,7.32 22.09,-0.27 30.946,-6.23 39.481,-12.08 7.949,-5.41 16.211,-10.97 34.199,-11.65 14.684,-0.52 24.609,1.76 31.242,7.05 z m -24.894,23.79 c 2.918,0.08 13.168,-7.82 22.468,-13.59 l -2.761,-3.72 c -2.789,-1.28 -23.844,17.14 -19.707,17.31 z m 28.949,-5.68 -2.871,-3.67 c -7.246,6.46 -23.629,14.98 -21.656,17.77 2.488,3.55 24.222,-10.12 24.527,-14.1 z m -16.785,24.62 3.031,-0.73 -2.027,-4.59 -3.168,2.86 z m 13.09,-6.47 c 0,0 4.57,-2.3 4.925,-6.62 l -7.336,2.35 z m 26.113,-29.83 5.308,1.28 v -14.93 c -3.125,1.08 -7.937,3.42 -12.472,8.75 -0.387,0.55 -1.309,2.87 -2.215,5.52 2.766,-0.53 6.535,-1.03 9.379,-0.62 z m 31.41,-273.743 c 4.707,-2.078 7.551,-6.074 6.34,-8.922 -1.227,-2.863 -6.063,-3.492 -10.797,-1.472 -4.676,2.132 -7.52,6.128 -6.312,8.941 1.199,2.918 6.039,3.523 10.769,1.453 z m 14.949,-30.023 c -3.926,2.464 -6.011,6.32 -4.59,8.75 1.399,2.402 5.774,2.351 9.739,-0.024 3.933,-2.492 6.015,-6.375 4.558,-8.781 -1.425,-2.348 -5.742,-2.293 -9.707,0.055 z m 25.188,-65.395 c 0,-12.137 -8.457,-26.68 -20.188,-34.219 v 72.133 c 18.188,-12.105 20.188,-24.265 20.188,-37.914 z m -3.723,52.547 c 3.574,-2.348 5.395,-6.066 4.024,-8.262 -1.422,-2.179 -5.477,-2.074 -9.082,0.332 -3.629,2.356 -5.465,6.071 -4.071,8.203 1.336,2.239 5.43,2.184 9.129,-0.273 z m 9.594,14.867 c 4.383,-2.758 6.543,-7.183 4.898,-9.836 -1.636,-2.574 -6.511,-2.519 -10.855,0.356 -4.348,2.867 -6.445,7.246 -4.863,9.867 1.699,2.652 6.5,2.457 10.82,-0.387 z m -21.203,33.637 c 1.797,2.945 7.07,2.894 11.992,-0.113 4.863,-2.954 7.324,-7.825 5.574,-10.774 -1.719,-2.894 -7.105,-2.84 -11.941,0.113 -4.871,3.008 -7.383,7.766 -5.625,10.774 z m 6.551,17.984 c -4.208,-1.258 -8.25,-0.16 -9.02,2.41 -0.766,2.563 2.156,5.731 6.426,6.942 4.265,1.308 8.308,0.164 9.082,-2.406 0.703,-2.575 -2.168,-5.696 -6.488,-6.946 z m 11.917,-11.543 c -3.285,1.809 -6.75,3.617 -10.277,5.426 l 0.434,0.156 c 4.843,1.422 9.441,0.223 10.203,-2.734 z m 27.84,-67.465 c -2.273,-1.828 -6.543,-0.113 -9.492,3.801 -3.008,3.852 -3.523,8.504 -1.25,10.332 2.317,1.774 6.504,0.035 9.512,-3.859 2.969,-3.879 3.496,-8.477 1.23,-10.274 z m -6.972,-38.769 c 2.453,-0.16 4.148,-3.777 3.82,-7.981 -0.266,-4.211 -2.617,-7.437 -5,-7.214 -2.492,0.214 -4.27,3.765 -3.906,8.035 0.359,4.125 2.593,7.375 5.086,7.16 z m -11.985,12.277 c -1.062,3.965 -0.078,7.68 2.297,8.332 2.356,0.602 5.086,-2.019 6.133,-6.066 1.062,-3.988 0,-7.711 -2.363,-8.363 -2.266,-0.602 -4.969,2.082 -6.067,6.097 z m -4.207,-64.054 c 2.657,3.222 6.262,4.562 8.235,3.007 1.882,-1.648 1.304,-5.554 -1.313,-8.808 -2.652,-3.328 -6.348,-4.649 -8.316,-3.067 -1.887,1.621 -1.313,5.528 1.394,8.868 z m -34.199,-43.172 c 2.129,2.703 7.188,2.031 11.289,-1.387 4.133,-3.449 5.801,-8.43 3.582,-10.996 -2.129,-2.707 -7.137,-2.024 -11.285,1.484 -4.074,3.379 -5.742,8.328 -3.586,10.899 z m -16.816,-20.364 3.586,2.512 0.183,-0.168 c 5.086,-3.133 9.707,-6.289 13.809,-9.617 V 521.57 c 0,-2.898 0.058,-8.691 0.117,-15.965 -2.688,-2.121 -5.527,-4.152 -8.672,-6.085 -3.09,2.207 -6.148,4.582 -9.023,7.101 z m -4.809,24.543 c 1.508,2.02 5.414,1.621 8.75,-0.839 3.336,-2.61 4.914,-6.204 3.41,-8.282 -1.472,-2.004 -5.347,-1.652 -8.742,0.926 -3.336,2.481 -4.84,6.125 -3.418,8.195 z M 661.301,506.348 c 1.48,1.941 5.082,1.523 8.117,-0.852 3.016,-2.383 4.238,-5.926 2.766,-7.871 -1.477,-1.902 -5.082,-1.531 -8.153,0.91 -2.996,2.371 -4.172,5.926 -2.73,7.813 z m -8.141,131.687 c -3.828,2.766 -5.64,6.836 -4.043,9.133 1.606,2.352 6.004,1.973 9.836,-0.703 3.774,-2.844 5.551,-6.895 3.992,-9.192 -1.59,-2.312 -6.015,-1.972 -9.785,0.762 z m -6.617,-140.078 c 1.609,2.129 5.684,1.75 8.992,-0.957 3.367,-2.715 4.731,-6.621 3.028,-8.719 -1.61,-2.14 -5.649,-1.73 -8.993,0.957 -3.3,2.703 -4.672,6.582 -3.027,8.719 z m -1.531,24.797 c 2.488,1.668 6.644,-0.246 9.218,-4.18 2.668,-3.996 2.723,-8.586 0.29,-10.285 -2.43,-1.668 -6.614,0.227 -9.211,4.18 -2.575,4.023 -2.735,8.613 -0.297,10.285 z m -6.207,19.551 c 1.883,1.199 5.058,-0.5 6.996,-3.782 2.019,-3.171 2.074,-6.777 0.183,-7.976 -1.929,-1.203 -5.101,0.488 -7.066,3.711 -1.949,3.23 -1.977,6.844 -0.113,8.047 z m -5.989,24.765 c -0.515,4.149 1.094,7.762 3.528,8.035 2.406,0.325 4.785,-2.839 5.304,-7 0.465,-4.16 -1.179,-7.824 -3.578,-8.085 -2.41,-0.227 -4.785,2.89 -5.254,7.05 z m -5.683,-11.504 c 2.433,0.789 5.441,-1.847 6.605,-5.832 1.211,-3.992 0.172,-7.761 -2.285,-8.632 -2.437,-0.77 -5.418,1.906 -6.644,5.851 -1.176,3.985 -0.114,7.871 2.324,8.613 z m 6.527,60.059 c 2.899,-1.203 3.641,-6.133 1.754,-11.016 -1.891,-4.902 -5.769,-7.961 -8.613,-6.816 -2.899,1.152 -3.66,6.023 -1.781,10.996 1.914,4.891 5.824,7.977 8.64,6.836 z m 3.942,-31.281 c -0.825,-4.813 -3.942,-8.25 -6.918,-7.656 -3.008,0.488 -4.672,4.933 -3.805,9.687 0.855,4.805 3.996,8.301 6.926,7.707 3.004,-0.605 4.691,-4.894 3.797,-9.738 z m -0.93,53.781 c 2.922,-1.613 3.226,-6.809 0.766,-11.602 -2.571,-4.746 -7,-7.343 -9.958,-5.675 -2.949,1.613 -3.281,6.777 -0.761,11.593 2.539,4.754 7.004,7.274 9.953,5.684 z m -8.141,55.516 c 1.766,1.425 5.078,0 7.426,-3.008 2.305,-3.192 2.734,-6.778 0.984,-8.145 -1.828,-1.414 -5.164,-0.019 -7.543,3.02 -2.304,3.055 -2.679,6.66 -0.867,8.133 z m -0.879,22.375 c 2.289,0.761 5.164,-1.864 6.371,-5.801 1.172,-3.938 0.375,-7.766 -1.914,-8.477 -2.328,-0.761 -5.23,1.836 -6.429,5.801 -1.227,3.934 -0.352,7.734 1.972,8.477 z m -5.992,34.933 c 1.481,4.098 4.617,6.731 7.031,5.797 2.407,-0.844 3.141,-4.922 1.719,-9.023 -1.527,-4.102 -4.68,-6.75 -7.055,-5.848 -2.41,0.875 -3.167,4.949 -1.695,9.074 z m -8.637,-38.324 c 2.793,0.93 6.176,-2.168 7.692,-6.895 1.379,-4.617 0.344,-9.16 -2.36,-10.117 -2.734,-0.867 -6.148,2.266 -7.679,6.973 -1.457,4.68 -0.387,9.16 2.347,10.039 z m 0.493,51.172 c 2.816,-1.086 3.746,-5.902 1.992,-10.824 -1.797,-4.977 -5.543,-8.035 -8.414,-7 -2.875,1.097 -3.742,6.019 -1.973,10.824 1.75,4.98 5.524,8.094 8.395,7 z m 6.699,-36.082 c -0.414,-4.406 -2.766,-7.77 -5.305,-7.543 -2.543,0.215 -4.328,3.992 -3.879,8.305 0.324,4.375 2.703,7.793 5.274,7.496 2.519,-0.164 4.285,-3.942 3.91,-8.258 z m -1.262,63.094 c 2.899,-1.426 3.281,-6.641 0.957,-11.532 -2.406,-4.98 -6.695,-7.816 -9.562,-6.398 -2.926,1.418 -3.344,6.617 -0.961,11.59 2.406,4.914 6.691,7.793 9.566,6.34 z m -15.738,48.605 c 5.223,-1.25 8.902,-4.941 8.14,-8.082 -0.773,-3.23 -5.664,-4.707 -10.988,-3.394 -5.23,1.316 -8.84,4.917 -8.097,8.152 0.761,3.168 5.66,4.695 10.945,3.324 z m 3.269,15.152 c 4.739,-1.148 7.989,-4.371 7.36,-7.277 -0.715,-2.836 -5.114,-4.207 -9.817,-3.055 -4.726,1.141 -8.007,4.485 -7.355,7.325 0.711,2.894 5.109,4.265 9.812,3.007 z m 1.129,6.016 c -4.156,1.031 -7.09,3.91 -6.48,6.477 0.648,2.597 4.48,3.691 8.668,2.648 4.152,-1.035 7.078,-3.906 6.504,-6.426 -0.602,-2.593 -4.512,-3.742 -8.692,-2.699 z m 26.11,-133.805 c -0.36,-3.929 -2.438,-6.879 -4.731,-6.664 -2.273,0.219 -3.777,3.524 -3.472,7.375 0.324,3.832 2.488,6.836 4.707,6.649 2.234,-0.227 3.796,-3.496 3.496,-7.36 z m -8.535,40.254 c -2.653,1.25 -3.036,5.903 -0.875,10.434 2.132,4.379 5.984,6.89 8.554,5.629 2.656,-1.25 2.988,-5.977 0.856,-10.383 -2.2,-4.43 -5.989,-6.992 -8.535,-5.68 z m 1.062,58.387 c 5.859,-1.313 9.934,-5.242 9.219,-8.738 -0.774,-3.567 -6.129,-5.426 -11.953,-4.11 -5.871,1.317 -10,5.227 -9.235,8.723 0.739,3.555 6.117,5.332 11.969,4.125 z m 3.035,15.699 c 5.094,-1.125 8.645,-4.488 7.934,-7.547 -0.66,-3.007 -5.227,-4.59 -10.227,-3.5 -5.027,1.09 -8.59,4.485 -7.933,7.485 0.66,3.117 5.254,4.679 10.226,3.562 z m 1.153,6.504 c -4.215,0.875 -7.215,3.66 -6.645,6.262 0.52,2.566 4.398,3.879 8.586,2.922 4.18,-0.981 7.215,-3.774 6.644,-6.258 -0.527,-2.598 -4.343,-3.91 -8.585,-2.926 z m 17.175,-42.516 c 4.203,-1.117 7.02,-4.066 6.391,-6.585 -0.629,-2.52 -4.531,-3.61 -8.695,-2.571 -4.153,1.121 -7.047,4.043 -6.391,6.594 0.625,2.48 4.559,3.664 8.695,2.562 z m 4.477,16.106 c 4.707,-1.254 7.93,-4.531 7.219,-7.379 -0.762,-2.871 -5.172,-4.133 -9.836,-2.926 -4.766,1.262 -7.989,4.59 -7.227,7.41 0.715,2.844 5.113,4.153 9.844,2.895 z m 1.48,4.594 c -5.207,1.422 -8.863,5.113 -8.043,8.308 0.844,3.176 5.711,4.625 10.965,3.285 5.227,-1.48 8.856,-5.089 8.012,-8.371 -0.734,-3.14 -5.688,-4.535 -10.934,-3.222 z m 15.879,-29.063 c -3.988,1.723 -6.34,5.082 -5.351,7.438 1.035,2.488 5.058,3.035 9.011,1.285 3.942,-1.805 6.348,-5.168 5.364,-7.547 -1.016,-2.375 -5.059,-2.848 -9.024,-1.176 z m 14.028,-9.754 c 1.257,2.121 5.046,2.121 8.586,-0.058 3.55,-2.192 5.332,-5.637 4.07,-7.821 -1.289,-2.05 -5.117,-2.05 -8.672,0.114 -3.438,2.125 -5.297,5.629 -3.984,7.765 z m 11.367,-19.441 v -78.328 c -3.489,-1.535 -7.188,-2.403 -10.961,-2.403 l -6.617,-0.82 v 89.942 c 6.89,-2.79 12.714,-5.524 17.578,-8.391 z M 680.609,651.004 c 1.829,2.375 6.508,1.906 10.465,-1.043 4.024,-3.066 5.789,-7.434 4.071,-9.844 -1.766,-2.402 -6.422,-1.992 -10.411,0.985 -4.027,3.066 -5.851,7.492 -4.125,9.902 z m -5.886,19.523 c -2.731,1.961 -4.016,4.911 -2.844,6.551 1.148,1.699 4.328,1.426 7.082,-0.594 2.715,-1.945 3.992,-4.816 2.852,-6.515 -1.153,-1.746 -4.262,-1.446 -7.09,0.558 z m -7.211,-10.89 c -3.094,2.297 -4.543,5.605 -3.254,7.492 1.308,1.863 4.898,1.609 8.008,-0.547 3.066,-2.297 4.531,-5.695 3.281,-7.551 -1.313,-1.883 -4.899,-1.523 -8.035,0.606 z m -10.809,-2.489 c 1.485,2.11 5.422,1.778 8.863,-0.683 3.477,-2.512 5.082,-6.231 3.645,-8.313 -1.43,-2.078 -5.395,-1.746 -8.891,0.684 -3.422,2.512 -5.117,6.262 -3.617,8.312 z m -4.367,21.629 c -2.863,2.297 -4.156,5.528 -2.816,7.325 1.363,1.75 4.839,1.281 7.683,-1.036 2.918,-2.351 4.207,-5.574 2.871,-7.273 -1.398,-1.809 -4.871,-1.309 -7.738,0.984 z m -9.02,-12.195 c -3.476,2.781 -4.98,6.641 -3.367,8.797 1.649,2.082 5.742,1.535 9.168,-1.199 3.488,-2.785 4.942,-6.692 3.383,-8.742 -1.617,-2.09 -5.742,-1.59 -9.184,1.144 z m -9.023,-12.141 c -4.043,3.223 -5.762,7.766 -3.883,10.168 1.86,2.461 6.617,1.836 10.637,-1.359 4.047,-3.223 5.766,-7.762 3.902,-10.223 -1.914,-2.297 -6.636,-1.75 -10.656,1.414 z m 18.34,-36.308 c -2.367,-4.512 -6.582,-6.895 -9.371,-5.379 -2.813,1.551 -3.121,6.426 -0.711,11.016 2.398,4.48 6.566,6.941 9.429,5.39 2.793,-1.535 3.059,-6.484 0.653,-11.027 z m -2.567,-19.676 c -1.531,-4.102 -4.863,-6.641 -7.218,-5.664 -2.399,0.906 -3.059,5 -1.477,9.109 1.59,4.211 4.84,6.614 7.277,5.684 2.375,-0.957 3.032,-5.027 1.418,-9.129 z m 4.164,-14.602 v -45.761 c -2.574,6.777 -4.109,14.269 -4.109,22.277 0,8.992 1.535,16.649 4.109,23.484 z M 638.691,700.82 c 1.59,1.25 4.539,0.098 6.563,-2.636 2.105,-2.735 2.461,-6.016 0.844,-7.188 -1.578,-1.262 -4.5,-0.09 -6.633,2.645 -2.027,2.746 -2.391,5.968 -0.774,7.179 z m 15.539,60.789 v -60.273 c -8.46,8.176 -13.429,17.789 -13.429,30.582 0,11.129 4.402,21.008 13.429,29.691 z m -6.71,4.543 c -1.911,-3.882 -5.274,-6.187 -7.571,-5.089 -2.328,1.261 -2.648,5.308 -0.738,9.351 1.887,3.883 5.309,6.121 7.602,4.977 2.304,-1.149 2.66,-5.274 0.707,-9.239 z m 58.156,-113.625 c -2.071,-2.839 -7.492,-2.246 -12.141,1.262 -4.617,3.445 -6.699,8.524 -4.68,11.395 2.036,2.765 7.461,2.246 12.09,-1.2 4.68,-3.554 6.7,-8.613 4.731,-11.457 z m 10.769,-50.379 c -1.828,-1.835 -5.82,-0.734 -8.8,2.461 -2.957,3.192 -3.934,7.188 -2.02,9.071 1.797,1.828 5.801,0.683 8.77,-2.489 3.007,-3.175 3.933,-7.218 2.05,-9.043 z m 0.137,42.84 c 4.133,-3.398 5.715,-8.308 3.613,-10.945 -2.109,-2.648 -7.148,-2.023 -11.316,1.484 -4.106,3.446 -5.715,8.36 -3.613,10.965 2.105,2.649 7.246,1.992 11.316,-1.504 z m -0.574,41.602 c -2.102,-2.567 -5.078,-3.602 -6.555,-2.344 -1.484,1.262 -1.074,4.367 1.055,6.992 2.082,2.578 5.012,3.664 6.512,2.403 1.554,-1.309 1.066,-4.422 -1.012,-7.051 z m 10.738,-0.41 c 1.762,-1.446 1.215,-4.942 -1.172,-7.891 -2.32,-2.957 -5.711,-4.109 -7.398,-2.715 -1.731,1.399 -1.156,4.953 1.172,7.903 2.398,2.898 5.711,4.148 7.398,2.703 z m 0.91,64.336 c -1.863,-1.453 -5.215,-0.09 -7.656,3.027 -2.266,3.094 -2.734,6.754 -0.93,8.211 1.77,1.414 5.188,0.07 7.551,-2.984 2.371,-3.176 2.781,-6.778 1.035,-8.254 z m 2.207,20.527 c 2.063,1.668 5.828,0.086 8.567,-3.363 2.625,-3.477 3.191,-7.594 1.113,-9.27 -2.043,-1.613 -5.813,-0.129 -8.547,3.473 -2.656,3.449 -3.183,7.605 -1.133,9.16 z m 3.235,-70.965 c -1.645,-3.644 -4.59,-5.801 -6.703,-4.816 -2.079,0.957 -2.508,4.621 -0.899,8.222 1.582,3.614 4.563,5.801 6.555,4.825 2.168,-0.985 2.597,-4.688 1.047,-8.231 z m -3.235,14.512 c -2.175,0.164 -3.679,3.336 -3.468,7.109 0.351,3.715 2.382,6.61 4.543,6.367 2.16,-0.132 3.71,-3.3 3.359,-6.996 -0.274,-3.804 -2.266,-6.64 -4.434,-6.48 z M 614.031,578.797 c -3.254,0.683 -5.168,5.441 -4.23,10.793 0.976,5.254 4.398,9.129 7.703,8.535 3.277,-0.625 5.168,-5.469 4.269,-10.82 -1.011,-5.313 -4.484,-9.082 -7.742,-8.508 z m 6.285,-3.856 c 2.907,0.411 5.719,-3.39 6.321,-8.359 0.519,-4.934 -1.34,-9.297 -4.266,-9.629 -2.93,-0.351 -5.711,3.418 -6.293,8.426 -0.57,4.914 1.289,9.23 4.238,9.562 z m 93.344,-75.625 c -2.879,-3.222 -6.836,-4.336 -8.887,-2.511 -2.019,1.855 -1.21,5.988 1.672,9.238 2.93,3.234 6.883,4.434 8.848,2.473 2.031,-1.817 1.289,-5.969 -1.633,-9.2 z m -13.379,10.887 v 90.215 c 12.09,-11.23 19.121,-24.551 19.121,-44.453 0,-18.262 -6.453,-33.574 -19.121,-45.762 z m 29.121,102.844 c -2.156,-2.238 -6.863,-0.871 -10.464,2.93 -3.606,3.828 -4.727,8.66 -2.512,10.828 2.234,2.16 6.965,0.82 10.547,-2.977 3.601,-3.781 4.738,-8.672 2.429,-10.781 z m -2.898,-17.844 c -2.899,4.582 -2.899,9.758 -0.109,11.613 2.816,1.864 7.46,-0.324 10.343,-4.972 2.805,-4.512 2.918,-9.735 0.047,-11.602 -2.793,-1.855 -7.437,0.422 -10.281,4.961 z m 6.648,-53.125 c -0.742,-3.965 -3.257,-6.836 -5.464,-6.336 -2.329,0.43 -3.586,3.926 -2.903,7.871 0.711,3.907 3.176,6.778 5.418,6.336 2.348,-0.41 3.652,-3.965 2.949,-7.871 z m -1.992,25.266 c -2.515,-0.715 -5.496,2.156 -6.617,6.394 -1.152,4.258 -0.141,8.313 2.344,9.016 2.461,0.691 5.476,-2.188 6.648,-6.418 1.172,-4.238 0.078,-8.34 -2.375,-8.992 z m 26.809,159.742 c 2.773,-0.273 4.687,-4.238 4.297,-8.945 -0.364,-4.645 -2.93,-8.258 -5.664,-8.094 -2.762,0.273 -4.668,4.238 -4.289,8.945 0.414,4.676 2.902,8.281 5.656,8.094 z m -3.789,9.184 c -2.735,-0.735 -6.082,2.46 -7.332,7.214 -1.262,4.735 -0.063,9.215 2.703,9.977 2.762,0.824 6.094,-2.398 7.351,-7.219 1.262,-4.75 0.063,-9.23 -2.722,-9.972 z m -18.075,72.363 c 4.95,-3.281 7.516,-8.363 5.614,-11.477 -1.973,-3.008 -7.559,-2.843 -12.586,0.43 -5.031,3.281 -7.61,8.426 -5.656,11.488 1.882,3.004 7.519,2.867 12.628,-0.441 z m 17.665,31.637 c 1.171,-3.036 -1.922,-7.059 -6.844,-9.051 -4.946,-1.965 -9.895,-1.149 -11.106,1.863 -1.113,3.008 1.953,6.988 6.848,8.965 5.027,2.019 9.922,1.144 11.102,-1.777 z m -13.758,8.007 c -4.192,-1.703 -8.301,-0.988 -9.289,1.532 -0.965,2.519 1.64,5.961 5.793,7.57 4.129,1.668 8.23,0.957 9.207,-1.555 0.988,-2.461 -1.582,-5.902 -5.711,-7.547 z m -62.746,9.571 v 266.832 c 0,7.1 2.574,6.71 5.855,6.71 9.926,0 11.723,-2.23 11.723,-7.48 V 862.469 c -5.301,-1.289 -11.289,-2.817 -17.578,-4.621 z m 10.195,-19.879 c 5.527,-2.379 8.809,-7.051 7.441,-10.356 -1.445,-3.34 -7.019,-4.074 -12.496,-1.648 -5.515,2.441 -8.828,7.058 -7.379,10.34 1.422,3.332 6.946,4.093 12.434,1.664 z m -26.539,15.496 c 5.766,-1.551 9.785,-5.684 8.883,-9.125 -0.875,-3.496 -6.289,-5.082 -12.051,-3.555 -5.805,1.504 -9.793,5.578 -8.922,9.082 0.875,3.496 6.289,5.082 12.09,3.598 z M 641.84,1189.69 c -3.578,-1.1 -8.231,0.82 -13.426,5.57 -1.613,1.54 -3.277,5.64 -3.961,8.26 l -19.25,71.71 c -0.738,2.55 0.219,5.85 2.055,7.3 l 0.847,0.62 12.954,3.32 c 0,0 21.714,-53.58 24.25,-71.41 1.175,-8.51 6.836,-22.42 -3.469,-25.37 z m -35.402,22.09 -9.985,7.35 c -1.887,1.34 -3.656,4.71 -3.965,7.47 l -4.972,44.29 c -0.274,2.67 1.117,5.3 3.121,5.79 1.968,0.44 4.152,-1.31 4.801,-3.93 l 14.851,-56.54 c 0.688,-2.66 -1.973,-5.8 -3.851,-4.43 z m -28.661,14.22 -6.359,2.07 c -2.082,0.77 -3.781,3.56 -3.723,6.29 l 1.344,38.39 c 0.055,2.78 1.746,4.48 3.793,3.93 2.023,-0.66 3.941,-3.34 4.238,-6.05 l 4.817,-40.59 c 0.324,-2.74 -2.024,-4.79 -4.11,-4.04 z m 32.379,121.6 c 0,23.57 18.149,42.7 40.567,42.7 h 52.351 c 22.473,0 40.598,-19.13 40.598,-42.7 0,-23.6 -18.125,-42.71 -40.598,-42.71 h -52.351 c -22.418,0 -40.567,19.11 -40.567,42.71 z m 41.66,72.36 c 6.231,5.39 14.567,9.19 25.075,9.19 13.011,0 22.843,-6.48 29.332,-14.41 2.957,-4.48 5.418,-10.38 5.269,-17.55 l -4.558,0.16 -0.196,1.04 c -1.699,8.1 -10.273,13.84 -11.593,13.62 -2.02,-0.47 1.203,-4.32 2.793,-8.26 l 0.839,-6.1 c -10.515,0.42 -21.726,0.9 -21.726,0.9 h -33.188 c 0.055,9.96 4.5,17.23 7.953,21.41 z m -92.707,-92.65 -8.089,-8.42 -3.969,0.66 -2.949,7.66 1.39,6.25 7.801,8.07 4.102,-0.6 3.003,-7.39 z m -1.668,-91.72 c -0.105,-2.7 -1.968,-4.75 -4.101,-4.57 l -12.715,1.37 -1.937,4.7 16.839,36.25 c 1.094,2.36 3.2,1.76 3.145,-0.93 z m -55.355,-8.12 c 6.035,8.53 12.738,19.57 17.25,27.28 l 18.281,30.86 8.399,13.1 3.054,1.94 2.825,-2.19 3.527,-7.35 c 0.492,-2.56 -0.078,-3.61 -1.207,-5.5 l -0.567,-0.94 -5.335,-8.92 c -4.7,-8.5 -11.567,-20.37 -20.29,-34.12 -8.085,-12.79 -19.488,-14.49 -25.937,-14.16 z m -10.664,1.03 c -6.563,-8.52 -15.012,-9.83 -20.344,-9.67 5.965,9.95 14.57,25.75 19.985,35.81 l 10.523,20.13 9.269,15.55 3.364,1.61 2.351,-2.7 2.625,-10.55 c 0.66,-2.71 0.457,-5.83 -0.953,-8.66 l -9.629,-15.32 c -5.136,-8.61 -11.832,-19.27 -17.191,-26.2 z m -32.043,-10.93 c -11.234,-16 -28.133,-23.18 -35.434,-24.33 1.832,2.57 3.637,5.2 5.328,7.93 8.504,14 15.969,26.73 22.118,37.51 0.543,0.98 2.168,3.78 4.238,7.41 1.699,3.03 3.258,5.88 4.68,8.5 h 0.027 c 5.902,10.44 12.461,22.09 12.492,22.09 l 9.57,15.64 3.122,1.67 2.179,-2.76 3.094,-12.5 c 0.738,-2.98 -0.418,-7 -1.887,-9.35 v 0.05 l -8.316,-14.79 c -6.973,-12.9 -16.922,-30.94 -21.211,-37.07 z m -37.895,-11.39 c -16.406,-26.83 -39.914,-43.23 -59.488,-42.03 27.34,31.17 53.586,72.07 64.899,90.33 l 11.757,18.92 12.2,17.44 3.086,1.69 2.238,-2.84 3.062,-13.36 c 0.711,-2.88 -0.191,-6.76 -1.91,-9.16 l -7.66,-12.63 h 0.09 c -7.004,-12.47 -16.653,-29.39 -28.274,-48.36 z m -95.796,-64.23 c -18.887,-13.75 -36.602,-15.86 -46.915,-13.18 l -2.296,0.72 c 48.289,25.26 93.859,92.78 111.98,121.98 l 11.68,16.74 15.824,22.96 3.117,1.67 2.168,-2.88 3.652,-16.4 c 0.606,-2.87 -0.269,-7.05 -1.988,-9.35 l -7.219,-10.19 c -17.66,-28.02 -58.046,-88.66 -90.003,-112.07 z m -56.348,-5.66 c -31.387,-15.17 -61.59,-17.9 -77.664,-13.91 -7.988,1.96 -10.582,5.03 -10.66,6.18 0,1.2 2.621,4.37 10.82,6.75 23.73,6.81 58.91,19 89.73,45.41 23.637,20.18 44.258,42.1 62.25,63.53 13.918,16.52 26.301,32.81 37.27,47.8 l 4.773,-21.22 1.231,-3.75 c -2.219,-3.85 -13.363,-21.73 -17.66,-27.8 -22.305,-33.3 -61.071,-84.24 -100.09,-102.99 z m 127.515,177.6 c 3.555,4.95 7,9.7 10.301,14.29 l 2.274,-1.66 5.992,-16.52 -1.274,-7.07 -16.531,-20.78 -4.012,0.38 -6.562,17.67 c 3.41,4.69 6.691,9.29 9.812,13.69 z m 21.758,29.61 c 4.981,6.42 9.625,12.19 14.164,17.33 l 1.477,-1.2 7.273,-14.58 -0.769,-6.31 -12.82,-16.29 -4.106,0.1 -7.727,14.72 -0.441,2.4 z m 34.039,-31.77 -1.828,-7.66 -15.75,-18.56 -3.965,0.74 -3.605,14.21 1.851,7.63 15.727,18.62 4.016,-0.76 z m -9.925,58.39 11.16,9.87 4.043,-0.52 5.66,-12.16 -1.344,-5.34 -11.836,-10.38 -3.965,0.49 -5.254,12.71 z m 39.265,27.64 4.067,-9.1 -1.528,-5.09 -10.527,-8.52 -4.125,0.52 -5.691,12.1 -0.27,1.43 c 5.961,3.79 11.863,6.62 18.074,8.66 z m -19.117,-74 -3.937,0.57 -4.458,11.54 1.375,6.26 11.313,11.86 4.043,-0.65 4.434,-11.48 -1.399,-6.21 z m 2.32,-13.94 12.114,14.51 3.968,-0.79 3.254,-12.63 -1.75,-7.62 -12.191,-14.52 -3.942,0.7 -3.285,12.72 z m 27.481,64.3 4.457,-10.04 -1.403,-5.27 -10.542,-9.24 -3.911,0.49 -4.297,10.31 1.477,5.38 10.254,8.91 z m 11.394,27.61 -5.789,-5.75 -3.777,0.58 -1.578,3.96 c 3.578,0.64 7.269,0.99 11.144,1.21 z m 8.426,-7.87 4.125,-9.3 -1.34,-5.09 -8.859,-7.81 -3.984,0.47 -4.571,9.39 1.391,5.07 9.332,7.76 z m -22.258,-72.34 -3.988,10.11 1.344,6.24 10.359,10.68 3.988,-0.62 3.938,-10.23 -1.336,-6.18 -10.227,-10.6 z m 5.336,-12.96 11.18,13.28 3.937,-0.76 2.743,-10.83 -1.809,-7.55 -10.965,-13.17 -3.965,0.79 -2.925,10.66 z m 26.871,60.64 3.828,-8.78 -1.386,-5.28 -9.274,-8.2 -4.043,0.52 -3.855,8.88 1.449,5.28 9.188,8.09 z m 13.02,28.56 -7.223,-7.84 -3.609,0.51 -4.289,10.42 -0.164,0.55 c 5.418,-0.71 10.55,-1.91 15.285,-3.64 z m 6.129,-10.25 3.656,-8.31 -1.395,-5.08 -8.207,-7.28 -3.933,0.47 -3.988,8.61 1.468,5.08 8.422,7 z m -21.656,-67.64 -3.555,9.47 1.437,6.23 9.192,9.48 3.996,-0.68 3.523,-9.07 -1.363,-6.23 -9.32,-9.77 z m 5.242,-12.05 9.902,11.67 4.012,-0.71 2.437,-9.35 -1.801,-7.63 -9.957,-11.64 -3.96,0.74 -2.379,9.3 z m 25.019,56.73 3.449,-7.71 -1.425,-5.25 -8.153,-7.22 -3.992,0.49 -3.301,7.71 1.422,5.31 8.063,7.19 z m 7.004,19.85 -1.535,-1.65 -3.613,0.49 -3.227,7.82 c 3.035,-2.02 5.824,-4.26 8.375,-6.66 z m 4.336,-4.65 c 3.012,-3.67 5.496,-7.52 7.301,-11.59 l -5.633,-4.76 -4.047,0.52 -3.359,7.25 1.429,5.08 z m 10.996,-27.95 c 0,-3.32 -0.332,-6.34 -0.902,-9.24 l -0.66,-0.54 -4.157,0.54 -2.921,6.13 1.335,5.3 6.403,5.74 c 0.57,-2.62 0.902,-5.3 0.902,-7.93 z m 591.975,-207.49 c -22.97,6.61 -56.87,18.25 -86.39,43.55 -50.31,43.05 -87.026,94.18 -113.811,131.5 -7.793,10.96 -15.188,21.27 -21.907,29.93 -31.328,40.63 -56.699,62.55 -101.074,62.01 -41.367,-0.57 -69.219,-31.25 -69.219,-59.5 0,-16.23 6.973,-27.47 12.493,-36.51 4.043,-6.49 7.488,-12.06 7.332,-17.77 -0.118,-4.76 -4.129,-7.61 -6.473,-8.92 -6.789,-3.72 -19.016,-4.71 -29.758,2.08 -14.707,9.16 -18.152,17.33 -18.75,18.97 10.742,8.62 17.793,23.51 17.793,37.4 0,11.65 -4.531,34.28 -27.09,45.16 l -4.597,1.89 c -0.571,17.86 -18.371,42.95 -46.168,42.95 -28.575,0 -46.176,-24.55 -46.176,-42.16 v -0.79 l -4.543,-1.89 c -22.582,-10.88 -27.145,-33.51 -27.145,-45.16 0,-13.89 7.082,-28.78 17.852,-37.4 -0.606,-1.69 -4.129,-9.81 -18.734,-18.97 -10.774,-6.79 -22.989,-5.8 -29.793,-2.08 -2.379,1.31 -6.344,4.16 -6.477,8.92 -0.195,5.71 3.301,11.28 7.324,17.77 5.582,9.04 12.489,20.28 12.489,36.51 0,28.25 -27.77,58.93 -69.243,59.5 -44.355,0.54 -69.718,-21.38 -101.05,-62.01 -6.665,-8.66 -14.106,-18.97 -21.899,-29.93 -26.785,-37.32 -63.512,-88.45 -113.844,-131.5 -29.464,-25.3 -63.39,-36.94 -86.3,-43.55 -15.938,-4.6 -17.442,-12.66 -17.442,-15.95 0.028,-3.25 1.891,-11.12 17.602,-15.11 19.551,-4.84 49.812,-0.16 77.129,11.53 1.855,-1.85 4.48,-3.35 7.839,-4.48 12.446,-4.1 33.762,-2.54 56.543,14.1 7.731,5.62 15.747,13.18 23.883,21.87 l 2.032,-1 c 19.738,-3.37 42.128,7.84 60.417,29.39 l 4.84,-0.93 c 9.793,0.24 29.719,8.8 43.086,26.35 5.086,-0.93 18.758,-2.24 29.992,8.88 6.098,-1.55 16.872,-1.61 26.93,4.3 11.586,0.16 44.672,-0.36 68.563,-12.28 42.195,-21.15 63.593,-61.81 63.593,-61.81 h 0.414 v -8.91 h -0.543 v -32.04 c -2.035,-0.55 -5.695,-1.23 -11.195,-0.82 -3.898,0.27 -7.078,1.96 -9.07,3.47 0.215,1.66 0.414,3.69 0.414,6.2 0,14.16 -5.231,40.11 -38.359,61.41 -17.446,13.07 -52.079,27.34 -91.836,24.22 -62.852,-4.92 -99.211,-39.31 -118.653,-67.25 l -4.445,-6.84 c -103.57,-3.56 -168.641,-70.4 -170.5,-176.36 -1.148,-59.355 -44.309,-91.562 -44.75,-91.895 l -1.637,-3.441 1.778,-3.336 c 0.351,-0.215 38.132,-26.383 47.437,-85.297 5.707,-31.711 19.977,-90.109 51.582,-126.496 44.508,-54.48 96.781,-61.484 137.348,-61.484 101.246,0 165.894,92.812 165.894,156.652 0,16.074 -4.129,29.637 -11.972,39.235 -8.555,10.492 -21.493,16.011 -37.317,16.011 -26.847,0 -48.66,-22.195 -48.66,-49.5 0,-11.758 4.215,-23.187 11.805,-32.242 2.98,-4.121 5.855,-7.051 7.879,-9.07 -6.426,-10.852 -33.875,-51.574 -85.051,-51.574 -69.656,0 -122.207,51.164 -122.207,118.855 0,51.066 40.793,84.855 41.195,85.297 l 1.535,3.394 -1.91,3.223 c -0.359,0.219 -40.574,26.625 -40.574,91.477 0,36.683 10.305,94.731 72.414,110.281 -5.055,-26.74 -4.707,-54.13 1.891,-78.789 21.929,-82.121 98.172,-124.231 162.203,-151.649 24.277,-10.394 47.508,-18.839 74.203,-27.804 -12.695,-18.426 -19.176,-40.356 -19.176,-65.422 0,-48.696 24.684,-72.856 47.109,-88.336 -14.183,-15.906 -30.593,-40.731 -30.593,-80.477 0,-40.578 23.383,-68.41 51.562,-87.004 -16.617,-3.933 -31.351,-5.605 -38.82,-6.531 l -4.125,-0.469 c -8.805,-1.359 -13.535,-7.675 -13.535,-12.949 0,-5.91 7.551,-9.68 19.187,-9.68 10.422,0 27.535,1.583 48.949,5.469 v -0.664 c 0,-10.605 0,-38.707 23.036,-38.707 22.175,0 22.968,26.141 23.015,37.508 17.121,-5.059 30.879,-7.109 35.688,-7.109 l 4.043,-0.051 c 8.672,-0.332 21.707,-0.762 26.875,4.347 l 2.246,5.489 c 0,11.269 -11.594,13.308 -27.617,16.14 l -2.192,0.352 c -3.14,0.625 -8.086,1.887 -13.933,3.82 l 4.941,3.699 c 26.055,23.157 44.895,39.856 44.895,93.165 0,28.273 -12.446,54.492 -34.094,72.148 11.379,8.996 44.18,38.527 44.18,79.699 0,32.699 -6.641,48.883 -25.75,74.414 6.179,1.699 11.238,3.332 15.996,5.035 5.195,-11.05 9.586,-24.23 12,-39.703 5.761,-31.711 20.007,-90.136 51.66,-126.496 44.492,-54.48 96.726,-61.484 137.273,-61.484 114.658,0 178.028,91.855 178.028,155.285 0,16.406 -4.31,30.293 -12.46,40.191 -8.89,10.77 -22,16.422 -38.13,16.422 -26.81,0 -48.65,-22.195 -48.65,-49.5 0,-11.758 4.19,-23.246 11.76,-32.242 3.06,-4.18 5.99,-7.187 8.01,-9.121 -6.09,-11.512 -34.06,-56.465 -96.019,-56.465 -68.535,0 -122.136,54.414 -122.136,123.797 0,51.066 40.808,84.855 41.25,85.297 l 1.472,3.394 -1.883,3.223 -1.941,1.359 2.508,1.34 2.019,1.153 c 36.828,21.054 98.86,69.472 98.86,157.226 0,14.18 -1.2,27.72 -3.418,40.57 43.968,-11.75 60.238,-46.69 64.718,-58.85 6.97,-19.118 -11.21,-39.454 -11.46,-39.681 l -0.92,-3.879 2.81,-2.785 c 25.32,-7.273 44.65,5.133 51.07,10.141 28.87,-20.039 51.13,-7.414 52.05,-6.817 l 1.79,2.278 c 2.12,7 3.09,13.476 3.09,19.265 0,17.559 -7.94,29.418 -11.71,34.098 6.42,11.62 8.43,23.87 8.43,33.96 0,12.5 -2.8,21.68 -2.96,22.33 l -2.65,2.74 -3.75,-0.77 c -4.42,-3.66 -18.13,-13.24 -28.05,-13.34 -10.88,-0.22 -26.35,14.43 -31.46,19.27 l -1.54,1.42 c -14.55,13.59 -53.99,44.54 -113.665,47 -27.102,43.77 -72.434,69.71 -129.043,69.71 -39.895,0 -71.938,-20.28 -83.86,-28.97 -24.519,-17.92 -36.511,-36.64 -36.511,-56.87 l 0.3,-5.8 c -0.421,-0.87 -2.246,-3.77 -7.148,-6.17 -7.156,-3.56 -13.723,-2.03 -13.801,-2.03 l -1.211,0.28 v 41.5 h -0.547 v 9.41 c 2.551,4.64 23.821,41.55 63.379,61.31 23.782,11.92 56.867,12.44 68.52,12.28 10.047,-5.91 20.828,-5.85 26.89,-4.3 11.262,-11.12 24.907,-9.81 29.993,-8.88 13.398,-17.55 33.347,-26.11 43.054,-26.35 l 4.953,0.93 c 18.204,-21.55 40.672,-32.76 60.34,-29.39 l 1.992,1 c 8.145,-8.69 16.185,-16.25 23.945,-21.87 22.73,-16.64 44.13,-18.2 56.52,-14.1 3.39,1.13 5.98,2.63 7.87,4.48 27.28,-11.69 57.55,-16.37 77.13,-11.53 15.74,3.99 17.56,11.86 17.57,15.11 0.05,3.29 -1.53,11.35 -17.38,15.95" style="fill:#231f20;fill-opacity:1;fill-rule:nonzero;stroke:none" id="path14" />
               <path d="m 724.727,1323.87 c 5.058,6.61 6.621,15.68 6.621,23.18 0,8.64 -1.485,17.17 -7.356,23.95 -5.847,6.7 -12.469,13.07 -8.472,0.77 4.097,-12.42 3.335,-26.58 -0.352,-34.45 -3.645,-7.82 -7.688,-16.08 -11.711,-19.41 -4.07,-3.34 -11.394,-8.98 -5.937,-8.59 5.554,0.39 19.089,4.16 27.207,14.55" style="fill:#231f20;fill-opacity:1;fill-rule:nonzero;stroke:none" id="path16" />
            </g>
         </g>
      </g>
   </g>
</svg>
