<!--?xml version="1.0" encoding="utf-8"?-->
<!-- Generator: Adobe Illustrator 18.1.1, SVG Export Plug-In . SVG Version: 6.00 Build 0)  -->

<svg version="1.1" id="_x32_" xmlns="http://www.w3.org/2000/svg" xmlns:xlink="http://www.w3.org/1999/xlink" x="0px" y="0px" viewBox="0 0 512 512" style="width: 256px; height: 256px; opacity: 1;" xml:space="preserve">
<style type="text/css">
	.st0{fill:#4B4B4B;}
</style>
<g>
	<path class="st0" d="M504.663,258.884l-96.576-36.434l-10.642-97.844c-0.57-5.28-4.778-9.479-10.05-10.05l-97.844-10.65
		L253.117,7.338c-1.56-4.125-5.37-6.975-9.772-7.305c-4.402-0.33-8.595,1.92-10.755,5.775L80.245,278.173l-3.044-3.044
		l-52.259,52.259c-9.6,9.607-16.417,21.157-20.438,33.577c-6.03,18.637-5.88,39.134-0.3,58.904
		C9.791,439.661,20.839,458.831,37.001,475c21.562,21.54,48.442,34.027,75.051,36.54c13.298,1.245,26.564-0.023,38.984-4.042
		c12.412-4.013,23.97-10.837,33.57-20.437l52.259-52.259l-3.045-3.045l272.365-152.352c3.856-2.153,6.112-6.353,5.783-10.747
		C511.638,264.254,508.788,260.444,504.663,258.884z M385.985,229.094l-109.701,84.329l-33.022-33.022l133.753-133.753
		L385.985,229.094z M231.593,292.071l31.492,31.5l-68.639,52.762l-23.557-23.55L231.593,292.071z M159.218,341.105l-23.55-23.55
		l52.762-68.646l31.492,31.492L159.218,341.105z M365.346,134.986L231.593,268.731l-33.015-33.014l84.329-109.708L365.346,134.986z
		 M240.495,38.177l29.34,77.752L186.803,223.95l-32.204-32.205L240.495,38.177z M146.222,206.7l30.434,30.449l-52.761,68.639
		l-21.217-21.224L146.222,206.7z M165.639,468.093c-6.502,6.495-14.212,11.078-22.868,13.882
		c-12.952,4.216-28.109,4.32-43.364,0.008c-15.232-4.29-30.472-12.967-43.44-25.949c-17.317-17.288-26.955-38.632-28.8-58.589
		c-0.944-9.967,0.045-19.567,2.858-28.214c2.805-8.655,7.388-16.373,13.882-22.868l44.234-44.234l121.73,121.723L165.639,468.093z
		 M227.43,409.324l-21.217-21.217l68.647-52.769l30.434,30.435L227.43,409.324z M320.256,357.402l-32.205-32.204l108.014-83.039
		l77.759,29.347L320.256,357.402z" style="fill: rgb(75, 75, 75);"></path>
</g>
</svg>
