<?xml version="1.0" standalone="no"?>
<!DOCTYPE svg PUBLIC "-//W3C//DTD SVG 20010904//EN"
 "http://www.w3.org/TR/2001/REC-SVG-20010904/DTD/svg10.dtd">
<svg version="1.0" xmlns="http://www.w3.org/2000/svg"
 width="700.000000pt" height="700.000000pt" viewBox="0 0 700.000000 700.000000"
 preserveAspectRatio="xMidYMid meet">
<metadata>
Created by potrace 1.11, written by Peter Selinger 2001-2013
</metadata>
<g transform="translate(0.000000,700.000000) scale(0.100000,-0.100000)"
fill="#000000" stroke="none">
<path d="M3413 6979 c-99 -38 -187 -141 -200 -236 -4 -31 -11 -44 -27 -49 -40
-13 -93 -55 -125 -99 -97 -135 -89 -316 19 -438 32 -37 32 -38 15 -64 -23 -35
-60 -68 -114 -100 -61 -37 -155 -42 -202 -10 -51 34 -54 67 -13 140 92 166 99
185 99 282 0 80 -3 97 -31 156 -136 286 -563 349 -860 125 -110 -82 -201 -187
-401 -464 -280 -386 -437 -579 -622 -762 -262 -259 -391 -342 -699 -447 -73
-25 -144 -54 -158 -66 -35 -27 -48 -64 -34 -96 45 -106 308 -119 568 -28 l73
25 47 -20 c39 -17 59 -20 128 -15 128 9 230 61 367 188 68 62 69 63 123 60
104 -5 219 49 328 153 36 35 56 46 80 46 74 0 185 58 258 135 33 35 42 39 91
41 50 2 101 20 136 48 8 6 39 11 70 12 31 0 78 9 104 19 39 15 64 17 143 11
104 -7 217 -28 286 -52 162 -57 342 -206 464 -384 l48 -71 -3 -137 c-2 -90 -7
-139 -14 -145 -13 -8 -68 -4 -103 8 -19 6 -22 15 -23 69 -2 153 -95 298 -266
412 -162 109 -343 162 -550 162 -95 1 -147 -6 -283 -34 -49 -10 -187 -65 -245
-98 -90 -50 -151 -96 -225 -168 -58 -57 -156 -175 -164 -199 -2 -5 -34 -11
-73 -14 -457 -36 -811 -263 -981 -630 -50 -109 -84 -223 -109 -370 -2 -16 -7
-70 -10 -120 -10 -172 -16 -217 -41 -302 -41 -143 -112 -261 -221 -372 -35
-35 -63 -67 -63 -71 0 -5 27 -34 61 -67 73 -70 134 -153 182 -249 47 -93 71
-171 102 -329 64 -319 165 -583 291 -761 63 -89 222 -249 299 -301 152 -102
311 -160 515 -188 48 -6 289 -6 320 0 14 3 45 8 70 11 122 17 336 110 452 197
157 118 293 279 375 442 33 66 80 190 88 233 2 15 9 51 15 80 9 47 7 185 -3
222 -2 8 -8 29 -12 45 -15 55 -73 134 -122 165 -187 119 -441 31 -507 -175
-41 -127 -17 -238 74 -349 l40 -48 -32 -46 c-49 -72 -157 -173 -228 -215 -103
-60 -206 -88 -325 -88 -356 -2 -660 197 -783 511 -66 169 -72 363 -17 527 35
103 104 217 181 299 84 88 84 79 1 164 -117 120 -187 267 -212 444 -6 45 -6
224 0 276 33 259 146 448 329 549 40 23 134 61 150 61 4 0 5 -21 1 -47 -14
-99 -14 -289 0 -380 39 -250 151 -461 355 -663 166 -165 315 -267 585 -400 77
-38 169 -80 205 -95 36 -14 74 -30 85 -35 37 -18 249 -97 333 -124 45 -15 82
-29 82 -31 0 -2 -14 -28 -31 -56 -62 -106 -97 -257 -94 -407 2 -118 12 -174
44 -258 45 -116 142 -241 238 -307 18 -12 33 -25 33 -29 0 -3 -11 -19 -24 -35
-169 -203 -227 -519 -137 -754 43 -113 160 -258 264 -329 20 -14 37 -28 37
-31 0 -3 -33 -12 -72 -19 -77 -14 -82 -14 -166 -24 -91 -11 -131 -38 -135 -91
-3 -47 39 -69 131 -69 86 0 180 8 261 24 74 14 71 15 71 -32 0 -53 22 -136 44
-170 42 -65 151 -76 208 -22 42 40 60 95 67 205 1 14 9 13 74 -4 82 -22 284
-34 337 -20 42 11 66 48 56 87 -9 35 -58 57 -185 85 -52 12 -96 23 -98 25 -3
2 15 22 38 43 146 130 216 224 253 343 35 109 48 268 31 379 -19 125 -84 258
-169 345 l-53 54 69 68 c118 117 194 247 219 379 14 70 9 225 -8 304 -19 82
-53 158 -109 239 -24 35 -44 65 -44 67 0 4 90 35 101 35 7 0 47 -98 54 -133 2
-9 6 -20 8 -25 3 -4 8 -23 11 -42 13 -78 17 -98 32 -165 92 -401 200 -629 397
-840 192 -206 428 -322 707 -350 66 -6 287 -7 315 -1 11 2 46 7 78 10 33 4 97
18 143 32 234 67 409 174 572 349 339 363 393 889 106 1024 -173 82 -380 11
-461 -158 -21 -43 -27 -73 -29 -131 -3 -99 15 -155 76 -235 28 -36 50 -68 50
-71 0 -17 -73 -109 -134 -170 -139 -138 -294 -203 -501 -209 -354 -11 -665
193 -796 522 -107 266 -75 543 89 766 25 34 52 69 61 77 9 8 31 32 49 53 26
31 30 42 22 57 -8 16 -6 21 12 31 26 13 161 100 168 109 3 3 32 27 65 55 254
210 410 486 441 782 12 118 7 289 -12 386 -6 27 -4 28 17 22 63 -17 193 -90
243 -136 112 -102 190 -238 189 -330 -1 -58 -29 -131 -73 -186 -11 -14 -20
-31 -20 -38 0 -43 165 -53 262 -16 31 12 67 30 80 40 22 18 23 18 78 -9 75
-38 120 -49 193 -46 122 4 152 44 145 194 -4 70 -10 92 -40 151 -27 54 -33 73
-25 87 6 10 18 48 28 84 29 108 13 300 -25 300 -6 0 -28 -12 -49 -26 -21 -14
-60 -36 -88 -49 -90 -41 -139 -23 -299 116 -116 99 -202 157 -324 215 -95 45
-238 88 -329 99 -28 3 -65 8 -82 10 -16 2 -35 4 -41 4 -6 1 -28 27 -50 58 -54
78 -168 190 -253 247 -256 171 -596 220 -881 125 -148 -49 -295 -140 -400
-248 -93 -95 -128 -164 -138 -269 -6 -65 -10 -77 -33 -95 -15 -10 -47 -22 -73
-24 -45 -6 -46 -5 -47 23 0 16 -1 97 -2 179 l-2 150 37 57 c136 205 347 367
538 412 87 20 119 25 225 32 75 5 100 3 150 -14 33 -11 78 -19 100 -17 27 2
49 -4 68 -17 38 -27 110 -48 142 -42 21 4 39 -7 91 -55 76 -69 159 -112 229
-119 45 -4 57 -11 115 -66 37 -35 95 -76 135 -96 60 -29 82 -35 149 -37 l78
-2 70 -63 c148 -134 252 -183 388 -183 61 0 94 5 119 17 33 17 36 17 103 -7
123 -45 205 -59 333 -60 110 0 125 2 170 26 57 29 81 63 72 101 -12 48 -51 72
-184 116 -226 75 -398 168 -542 292 -231 200 -451 452 -714 818 -285 397 -396
521 -548 614 -218 133 -511 119 -682 -32 -100 -88 -148 -193 -142 -308 4 -77
22 -128 82 -230 57 -97 61 -123 24 -164 -28 -32 -32 -33 -103 -33 -69 0 -77 2
-132 40 -33 22 -73 57 -89 77 l-30 37 38 42 c61 68 80 120 80 224 0 76 -4 98
-26 146 -32 68 -88 128 -146 158 -31 15 -43 28 -43 44 0 72 -102 201 -188 240
-66 29 -170 32 -239 6z m211 -53 c72 -30 136 -110 136 -170 0 -36 -25 -33 -40
4 -7 17 -26 40 -41 51 -30 21 -37 13 -18 -22 6 -11 12 -29 14 -39 3 -17 -6
-18 -183 -16 -126 1 -187 6 -189 13 -8 24 20 96 50 130 59 64 182 86 271 49z
m-1307 -188 c-14 -22 -43 -24 -50 -4 -4 10 2 16 16 18 43 7 46 6 34 -14z
m2456 13 c21 -1 22 -20 1 -28 -9 -3 -24 3 -36 15 -20 19 -20 20 -2 17 10 -2
27 -4 37 -4z m-2230 -20 c11 -11 -40 -54 -56 -48 -8 3 -20 20 -26 37 l-11 33
43 -7 c23 -4 45 -10 50 -15z m2052 2 c-4 -10 -10 -26 -12 -35 -7 -23 -31 -23
-55 -1 -35 32 -20 48 51 52 18 1 22 -3 16 -16z m-2397 -30 c19 -43 15 -59 -29
-97 -49 -42 -71 -37 -90 21 -7 21 -12 40 -12 42 1 5 105 61 113 61 3 0 11 -12
18 -27z m2749 -8 c18 -9 35 -20 38 -25 8 -12 -31 -87 -47 -93 -17 -5 -85 48
-93 73 -3 10 1 33 10 49 17 33 21 33 92 -4z m-2538 -21 c17 -39 14 -55 -21
-91 -39 -41 -53 -41 -73 -3 -23 44 -18 66 21 98 41 34 56 33 73 -4z m2344 -38
c8 -25 -21 -82 -43 -83 -9 -1 -32 14 -50 32 -32 33 -33 36 -21 74 6 23 19 41
29 43 20 5 78 -39 85 -66z m-928 12 c81 -43 130 -105 150 -191 26 -114 -7
-222 -91 -296 -75 -66 -104 -71 -373 -69 -221 3 -239 4 -277 25 -63 34 -97 66
-129 125 -27 48 -30 62 -30 143 0 81 3 95 30 144 35 64 82 105 150 131 45 17
74 19 285 17 233 -2 235 -3 285 -29z m570 3 c-4 -13 -15 -21 -28 -21 -21 0
-21 0 3 24 29 27 35 26 25 -3z m-1712 5 c22 -17 22 -26 -2 -26 -10 0 -21 9
-24 20 -6 23 1 25 26 6z m-74 -27 c15 -44 15 -46 -19 -79 -39 -38 -55 -38 -75
0 -21 40 -19 47 17 81 42 38 63 37 77 -2z m1910 5 c34 -28 38 -46 19 -87 -16
-33 -35 -34 -69 -4 -35 32 -41 54 -24 88 19 36 35 36 74 3z m-2482 -70 c13
-22 20 -47 17 -59 -7 -25 -84 -97 -98 -92 -16 5 -45 68 -46 96 0 26 75 103 95
97 6 -1 20 -20 32 -42z m3085 -10 c9 -11 18 -26 20 -34 4 -22 -23 -98 -38
-104 -21 -8 -104 63 -104 90 0 32 18 77 37 91 13 10 21 9 42 -6 14 -10 33 -27
43 -37z m-2362 14 c23 -39 22 -49 -11 -65 -20 -11 -26 -10 -36 4 -24 31 -11
93 19 93 5 0 17 -15 28 -32z m1579 23 c21 -13 18 -71 -4 -87 -14 -11 -21 -10
-41 2 -24 16 -23 28 6 72 17 25 19 25 39 13z m-2065 -60 c21 -45 14 -64 -35
-105 -42 -35 -54 -33 -73 14 -19 47 -13 64 35 104 41 35 53 33 73 -13z m2582
10 c18 -16 35 -38 38 -49 8 -24 -18 -92 -35 -92 -18 0 -86 58 -91 78 -8 27 21
92 41 92 9 0 30 -13 47 -29z m-2376 -45 c13 -41 7 -59 -35 -90 -43 -33 -48
-33 -67 7 -19 39 -11 64 31 100 38 31 56 27 71 -17z m2205 -32 c8 -25 -19 -84
-38 -84 -20 1 -75 54 -78 75 -4 32 12 74 29 78 22 4 79 -41 87 -69z m-2016 5
c12 -36 4 -57 -35 -88 -31 -24 -52 -18 -61 18 -9 35 -6 49 20 76 32 35 63 32
76 -6z m1796 -1 c29 -34 28 -72 -2 -95 -12 -10 -21 -8 -44 10 -35 25 -46 59
-30 93 15 33 44 30 76 -8z m-2583 -52 c17 -34 25 -62 21 -77 -7 -30 -90 -129
-107 -129 -7 0 -25 27 -41 59 l-28 60 58 70 c31 39 60 71 64 71 4 0 19 -24 33
-54z m2418 -16 c0 -32 -11 -50 -31 -50 -10 0 -19 3 -20 8 -1 13 -2 66 0 91 l1
24 25 -27 c14 -15 25 -35 25 -46z m965 5 c28 -36 52 -70 53 -76 6 -15 -51
-119 -64 -119 -10 0 -45 38 -91 99 -7 9 -13 28 -13 42 0 36 41 120 59 119 3
-1 29 -30 56 -65z m-2460 8 c-3 -64 -3 -63 -20 -63 -37 0 -41 70 -6 97 26 20
29 16 26 -34z m-681 -23 c9 -22 16 -49 16 -60 0 -28 -82 -113 -102 -105 -15 6
-38 66 -38 99 0 20 77 106 95 106 7 0 20 -18 29 -40z m2885 -4 c29 -30 43 -52
43 -72 1 -33 -27 -94 -43 -94 -11 0 -88 79 -90 92 -5 27 -4 36 4 63 11 32 25
55 36 55 4 0 26 -20 50 -44z m-2674 -32 c19 -46 12 -71 -32 -117 -39 -42 -52
-43 -70 -6 -23 44 -16 80 24 121 20 21 43 38 50 38 7 0 20 -16 28 -36z m2458
0 c18 -20 35 -45 39 -56 8 -21 -12 -81 -32 -93 -15 -9 -87 60 -92 90 -6 30 20
95 38 95 8 0 29 -16 47 -36z m-2256 -25 c14 -37 4 -69 -35 -110 -34 -36 -50
-37 -63 -1 -22 57 -13 85 46 133 25 21 38 16 52 -22z m2087 -45 c8 -29 -18
-94 -36 -94 -7 0 -28 19 -47 41 -29 35 -33 46 -27 77 3 20 13 43 23 50 14 10
22 7 49 -19 18 -17 35 -42 38 -55z m-1908 28 c13 -33 3 -64 -29 -98 -30 -32
-55 -31 -64 4 -10 40 -4 64 25 95 33 35 55 34 68 -1z m1687 4 c31 -31 40 -68
25 -100 -15 -35 -35 -33 -69 7 -31 35 -34 51 -19 91 12 32 32 33 63 2z m-2694
-138 c11 -31 17 -67 13 -80 -7 -28 -97 -145 -123 -158 -16 -9 -21 -2 -41 52
-12 35 -22 67 -20 71 8 26 136 187 143 180 5 -5 17 -34 28 -65z m3785 -84 l26
-40 -23 -57 c-12 -31 -27 -59 -34 -61 -19 -8 -133 142 -133 174 0 32 29 123
43 132 9 6 60 -56 121 -148z m-3523 92 c6 -30 9 -64 6 -77 -8 -33 -104 -144
-124 -144 -23 0 -45 80 -34 122 10 36 107 153 127 153 7 0 18 -23 25 -54z
m3207 -12 c32 -38 55 -77 58 -97 7 -40 -16 -111 -36 -114 -8 -1 -40 28 -70 65
-50 60 -55 71 -54 112 2 54 19 100 36 99 7 0 37 -29 66 -65z m-2987 7 c6 -22
9 -54 5 -73 -8 -39 -88 -134 -104 -124 -17 10 -34 84 -27 115 3 15 21 45 40
67 19 21 35 42 35 47 0 4 9 7 20 7 14 0 22 -11 31 -39z m2748 -2 c40 -47 63
-107 50 -131 -5 -9 -9 -25 -9 -36 0 -38 -32 -35 -68 5 -53 61 -65 97 -52 154
15 61 32 62 79 8z m-2545 -14 c9 -48 -2 -84 -41 -132 -40 -49 -55 -53 -71 -18
-25 54 -14 93 45 156 40 43 58 42 67 -6z m2384 -70 c11 -39 -7 -105 -28 -105
-19 0 -75 66 -90 105 -12 31 3 101 23 108 16 7 85 -71 95 -108z m-2194 73 c13
-52 6 -85 -30 -131 -20 -26 -42 -47 -49 -47 -18 0 -36 57 -29 89 9 36 66 110
85 111 9 0 19 -10 23 -22z m1954 -18 c37 -45 49 -91 33 -132 -14 -37 -24 -35
-65 10 -39 41 -53 93 -37 135 14 37 30 34 69 -13z m-1859 -126 c6 -14 11 -31
11 -39 0 -17 -180 -321 -215 -363 -26 -31 -101 -67 -128 -60 -11 2 23 66 124
233 76 127 146 238 154 247 18 22 39 15 54 -18z m644 19 c145 -12 415 -7 476
9 19 6 37 6 42 1 5 -5 -4 -39 -20 -78 -101 -248 -196 -620 -216 -845 -6 -64
-18 -92 -48 -110 -27 -17 -33 -17 -58 -4 -34 17 -38 30 -73 249 -28 178 -26
167 -54 285 -22 89 -124 395 -148 442 -19 38 -19 72 2 64 8 -3 52 -9 97 -13z
m1099 5 c9 -7 71 -105 139 -218 67 -113 130 -217 141 -232 25 -37 23 -41 -18
-35 -80 13 -109 48 -269 320 l-58 98 18 40 c20 43 24 45 47 27z m-2184 -106
l14 -62 -55 -98 c-30 -53 -69 -124 -87 -157 -54 -98 -80 -138 -119 -179 -46
-49 -131 -105 -173 -113 -32 -6 -32 -5 -17 13 17 20 151 245 234 394 113 202
158 271 174 268 11 -2 20 -23 29 -66z m2646 29 c13 -21 71 -121 129 -222 125
-219 127 -224 195 -335 29 -48 51 -88 49 -90 -2 -2 -30 9 -64 25 -118 56 -192
154 -354 467 l-37 72 15 61 c18 72 33 77 67 22z m551 -141 c216 -317 279 -406
342 -485 153 -190 302 -334 442 -424 43 -27 58 -41 45 -42 -71 -5 -95 -4 -139
6 -136 31 -267 137 -447 357 -159 194 -418 578 -418 618 0 27 24 121 35 140
11 17 21 4 140 -170z m-3671 161 c3 -5 12 -37 19 -72 10 -47 11 -71 3 -89 -6
-14 -70 -113 -143 -220 -352 -521 -560 -719 -770 -735 -101 -7 -103 4 -10 65
108 71 336 300 448 450 48 63 143 198 211 300 69 102 145 213 168 248 41 59
62 73 74 53z m253 -47 c19 -73 17 -84 -32 -163 -25 -40 -45 -74 -45 -76 0 -8
-136 -236 -185 -310 -81 -122 -158 -195 -256 -239 -56 -25 -129 -41 -129 -28
0 4 14 23 30 42 100 114 261 344 469 670 117 184 126 190 148 104z m409 21
c29 -71 23 -91 -70 -240 -100 -160 -136 -201 -186 -215 -59 -16 -61 -13 -31
39 36 61 74 130 136 246 75 141 97 179 113 193 21 16 21 17 38 -23z m2267 -17
c19 -29 63 -109 99 -178 36 -69 84 -156 107 -195 37 -64 39 -70 21 -73 -30 -5
-88 27 -119 67 -15 20 -65 95 -110 166 -76 120 -82 133 -77 171 7 52 23 94 36
94 6 0 25 -24 43 -52z m474 -82 c49 -74 110 -170 137 -213 81 -127 222 -327
298 -421 39 -48 75 -92 80 -99 17 -22 -75 -3 -142 29 -45 22 -88 54 -140 107
-77 77 -137 169 -310 473 l-72 127 13 58 c12 54 23 72 41 73 4 0 47 -60 95
-134z m615 -151 c138 -166 293 -327 437 -454 160 -140 326 -232 565 -311 111
-37 156 -59 156 -76 0 -3 -21 -15 -47 -26 -128 -57 -433 1 -626 119 -205 124
-456 405 -686 766 l-61 97 21 85 21 84 85 -112 c47 -62 108 -139 135 -172z
m-4269 194 l19 -81 -58 -91 c-146 -231 -288 -412 -448 -572 -181 -180 -310
-256 -523 -311 -156 -40 -335 -34 -374 12 -20 24 5 39 141 84 146 48 297 118
400 185 197 129 485 424 740 758 41 53 77 97 80 97 3 0 13 -36 23 -81z m1640
34 c3 -10 32 -93 66 -184 65 -176 113 -362 105 -406 -3 -15 -10 -33 -16 -40
-17 -21 -64 -15 -97 13 -34 29 -38 39 -126 372 -54 202 -56 214 -40 232 15 17
37 24 86 29 9 0 19 -7 22 -16z m835 4 c8 0 19 -11 25 -24 8 -19 4 -48 -22
-146 -18 -67 -42 -156 -53 -197 -59 -217 -66 -237 -102 -259 -65 -41 -109 -22
-108 48 1 59 46 227 101 379 81 223 77 215 114 206 18 -4 38 -7 45 -7z m-1153
-76 c6 -21 22 -146 31 -245 l7 -76 -26 0 c-13 0 -35 8 -48 19 -21 17 -23 24
-20 127 4 188 8 208 36 198 8 -3 17 -13 20 -23z m129 1 c3 -10 28 -104 57
-210 56 -213 56 -230 -6 -192 -58 36 -65 51 -80 180 -3 30 -8 71 -11 90 -11
84 -11 136 -2 147 12 15 36 6 42 -15z m1171 7 c6 -18 4 -55 -10 -164 -2 -16
-7 -57 -10 -90 -11 -95 -12 -98 -57 -137 -53 -47 -75 -49 -70 -7 8 62 103 404
115 411 19 12 25 10 32 -13z m130 -1 c11 -48 10 -297 -1 -308 -7 -7 -27 -13
-45 -13 -38 -2 -39 3 -26 113 3 30 9 84 13 120 6 63 25 110 44 110 5 0 12 -10
15 -22z m-1557 -138 c-4 -156 -6 -160 -66 -153 -52 5 -62 10 -62 29 0 24 112
264 123 264 5 0 7 -62 5 -140z m1661 118 c5 -13 27 -61 49 -108 58 -123 63
-137 49 -148 -21 -17 -94 -23 -106 -8 -16 19 -26 286 -11 286 6 0 14 -10 19
-22z m-1880 -580 c63 -39 -34 -123 -128 -112 -43 6 -61 20 -61 49 0 60 126
102 189 63z m-273 -9 c58 -48 -77 -165 -151 -131 -41 19 -34 63 16 106 53 45
101 54 135 25z m2488 -11 c56 -28 73 -71 40 -99 -38 -31 -160 -4 -184 41 -32
60 64 99 144 58z m248 -14 c14 -7 36 -26 47 -40 70 -89 -54 -127 -138 -43 -74
73 -8 134 91 83z m-3015 -92 c18 -72 -106 -173 -157 -127 -31 28 -12 87 43
129 55 41 103 41 114 -2z m3308 -26 c44 -39 59 -85 38 -116 -27 -39 -105 -9
-143 53 -57 93 19 139 105 63z m-2955 -12 c32 -37 -39 -114 -106 -114 -97 0
-31 127 67 129 15 1 32 -6 39 -15z m416 -40 c33 -51 98 -103 167 -133 51 -22
58 -40 31 -79 -21 -31 -49 -28 -64 7 -16 39 -46 66 -100 89 -25 11 -51 26 -57
33 -8 10 -29 14 -67 12 -58 -2 -64 3 -44 40 16 30 53 58 104 77 1 0 14 -21 30
-46z m93 27 c10 -7 11 -13 2 -30 -14 -25 -24 -26 -41 -6 -24 29 5 57 39 36z
m2093 -28 c33 -31 41 -59 21 -78 -50 -51 -188 46 -143 100 20 24 87 12 122
-22z m-422 -29 c47 -54 41 -67 -25 -62 -40 3 -59 1 -67 -10 -7 -8 -35 -24 -64
-37 -48 -21 -104 -77 -104 -103 0 -20 -38 -13 -54 10 -18 26 -21 68 -5 68 5 0
34 11 63 25 57 27 128 90 151 136 14 26 17 27 45 18 16 -6 43 -26 60 -45z
m-165 36 c7 -12 -12 -50 -25 -50 -5 0 -14 10 -21 21 -9 17 -8 23 2 30 19 12
36 11 44 -1z m-2277 -32 c20 -20 14 -51 -18 -90 -75 -91 -172 -53 -107 43 35
52 97 75 125 47z m882 -13 c16 -20 6 -45 -19 -45 -27 0 -34 15 -19 40 15 24
22 25 38 5z m2207 -15 c59 -36 81 -120 35 -132 -28 -8 -74 15 -105 51 -62 74
-12 131 70 81z m-929 -14 c9 -21 8 -26 -8 -31 -36 -11 -54 17 -28 43 17 17 23
15 36 -12z m-1830 -39 c47 -30 -49 -117 -105 -96 -41 15 -24 62 32 92 31 16
51 17 73 4z m-600 -9 c7 -7 12 -20 12 -30 0 -27 -21 -67 -34 -63 -6 2 -33 6
-60 9 -27 3 -51 7 -53 10 -9 9 32 55 62 70 36 19 57 20 73 4z m3647 -22 c38
-41 48 -78 28 -106 -18 -26 -34 -25 -68 2 -37 29 -58 80 -45 113 13 35 46 32
85 -9z m-677 9 c35 -10 52 -55 52 -140 0 -72 -1 -75 -24 -75 -13 0 -44 16 -70
35 -60 46 -81 87 -77 148 1 20 56 48 81 42 8 -2 25 -6 38 -10z m-2594 -27 c22
-36 -48 -118 -102 -118 -53 0 -41 78 18 118 38 26 68 26 84 0z m2767 -15 c41
-24 43 -41 19 -132 -25 -90 -38 -108 -69 -92 -26 14 -33 38 -35 129 -2 62 1
79 16 94 22 22 32 23 69 1z m-1821 -18 c0 -8 -4 -15 -9 -15 -13 0 -22 16 -14
24 11 11 23 6 23 -9z m561 -7 c5 -7 8 -422 6 -922 l-2 -910 -50 -13 c-27 -7
-53 -13 -57 -13 -10 0 -11 1841 -2 1865 5 13 16 15 52 11 24 -2 49 -10 53 -18z
m1641 -3 c23 -14 47 -63 41 -86 -5 -19 -38 -26 -59 -11 -22 14 -42 66 -33 89
8 22 22 24 51 8z m-1290 -10 c0 -5 -5 -11 -11 -13 -6 -2 -11 4 -11 13 0 9 5
15 11 13 6 -2 11 -8 11 -13z m-811 -36 c6 -12 7 -19 2 -17 -4 3 -16 8 -26 11
-10 4 -15 11 -12 17 10 16 23 12 36 -11z m1877 1 c18 -11 41 -34 52 -52 23
-39 18 -50 -63 -139 -58 -63 -59 -63 -85 -48 -36 20 -40 70 -12 163 32 104 45
114 108 76z m-1131 -7 c4 -11 -26 -27 -35 -19 -2 3 -2 12 2 21 6 18 27 16 33
-2z m-2265 -7 c146 -13 281 -52 420 -121 122 -61 162 -89 293 -206 160 -142
240 -161 374 -88 30 16 56 27 58 25 5 -5 5 -148 -1 -171 -13 -61 -21 -84 -38
-118 l-19 -39 25 -36 c42 -61 59 -113 59 -182 1 -95 -7 -117 -45 -125 -80 -18
-171 2 -248 53 -30 20 -50 21 -70 5 -39 -31 -136 -66 -196 -71 l-64 -5 32 69
c39 84 47 162 24 230 -44 131 -179 292 -307 367 -216 127 -548 137 -792 24
-201 -94 -326 -263 -383 -522 -28 -123 -25 -361 5 -480 40 -152 100 -266 194
-362 l51 -52 -20 -23 c-10 -12 -30 -34 -43 -48 -43 -47 -119 -169 -149 -242
-47 -113 -66 -224 -59 -343 7 -116 10 -130 38 -221 80 -261 282 -466 545 -553
111 -37 133 -41 269 -48 195 -9 342 42 504 176 70 58 181 205 181 240 0 5 -18
29 -40 53 -65 71 -95 141 -95 223 1 119 59 210 166 260 102 47 250 19 317 -60
54 -64 75 -137 73 -259 -1 -130 -67 -331 -150 -461 -228 -357 -573 -548 -971
-539 -200 5 -304 25 -465 91 -155 65 -362 241 -468 401 -113 168 -204 411
-262 696 -20 94 -45 200 -57 236 -43 133 -119 261 -210 357 l-60 62 65 74
c107 123 193 293 212 418 4 24 8 46 10 49 2 3 6 55 9 115 4 61 9 133 12 160
59 541 397 900 924 981 49 7 259 21 275 17 6 -1 40 -4 77 -7z m1432 -16 c64
-36 88 -61 77 -79 -7 -11 -25 -3 -79 35 -39 27 -73 55 -76 62 -9 21 24 13 78
-18z m-862 2 c13 -13 -4 -62 -30 -85 -28 -25 -67 -31 -82 -12 -19 23 -2 64 38
91 34 23 55 25 74 6z m1826 8 c-1 -5 -34 -32 -73 -60 -47 -34 -72 -47 -79 -40
-16 16 5 41 64 78 53 31 95 42 88 22z m1717 -20 c120 -28 190 -56 310 -124 67
-37 220 -149 227 -165 6 -14 133 -108 170 -124 61 -28 132 -22 204 18 38 20
66 30 70 24 3 -5 6 -42 5 -81 -1 -71 -20 -158 -48 -211 -14 -27 -13 -31 12
-67 52 -75 71 -175 51 -268 -6 -26 -13 -33 -44 -39 -72 -14 -124 -5 -204 35
l-77 39 -80 -39 c-60 -31 -95 -41 -146 -46 -39 -3 -66 -1 -63 4 2 5 17 36 33
69 41 84 45 162 13 241 -74 184 -245 344 -430 405 -66 21 -68 23 -78 63 -17
64 -60 186 -86 240 -13 28 -24 51 -24 53 0 7 104 -8 185 -27z m-241 -29 c61
-53 67 -181 8 -181 -77 0 -131 161 -69 202 13 8 36 0 61 -21z m-2473 -36 c64
-41 80 -63 53 -72 -12 -4 -126 87 -132 105 -6 19 5 15 79 -33z m1029 27 c0
-15 -113 -112 -130 -112 -4 0 -10 7 -14 15 -3 10 16 29 62 59 68 46 82 52 82
38z m-1524 -48 c50 -15 88 -34 146 -73 82 -55 151 -74 265 -73 68 0 124 15
163 42 24 18 25 18 78 -31 29 -27 75 -59 103 -71 l49 -23 0 -712 0 -712 -41
14 c-22 8 -123 40 -225 70 -312 94 -490 181 -721 352 -43 31 -112 90 -153 130
l-75 72 75 -3 c86 -4 150 12 227 55 29 16 54 25 57 21 8 -13 87 -50 131 -61
51 -14 91 -14 155 0 71 15 84 39 87 151 2 93 -12 154 -52 218 -20 32 -21 39
-10 61 40 75 54 207 35 310 -14 70 -23 79 -63 55 -86 -51 -135 -75 -167 -80
-49 -8 -122 30 -209 108 -40 36 -94 81 -121 102 -28 21 -50 42 -50 46 0 4 28
16 63 27 70 23 184 25 253 5z m2819 -6 c50 -44 63 -136 22 -162 -20 -13 -66
18 -85 58 -20 40 -18 97 4 113 24 17 29 17 59 -9z m-661 -17 l28 -11 -43 -32
c-115 -82 -248 -247 -314 -391 -34 -74 -80 -209 -89 -262 -3 -16 -8 -41 -11
-55 -11 -55 -14 -86 -20 -169 -3 -47 -8 -113 -10 -146 -10 -146 -75 -313 -170
-443 -2 -2 -46 -18 -98 -37 -92 -33 -295 -80 -305 -71 -3 4 -5 852 -3 1277 l1
97 37 7 c55 10 130 51 183 101 l47 44 44 -16 c24 -8 79 -17 121 -18 93 -4 158
16 256 76 37 23 87 48 112 55 52 15 191 12 234 -6z m489 -1 c32 -26 67 -73 72
-99 2 -10 -6 -28 -18 -39 -35 -31 -153 -102 -171 -102 -18 0 -76 75 -76 99 0
21 132 161 152 161 8 0 27 -9 41 -20z m-1843 -70 c0 -30 -4 -50 -11 -50 -6 0
-30 19 -53 42 l-41 43 45 6 c25 3 48 7 53 7 4 1 7 -20 7 -48z m1496 2 c52 -38
175 -193 173 -219 0 -4 -26 -28 -57 -52 -79 -61 -126 -121 -177 -226 -70 -145
-95 -277 -90 -475 7 -246 77 -433 217 -577 l51 -52 -50 -58 c-149 -174 -214
-332 -219 -533 -6 -261 79 -482 256 -660 310 -313 807 -353 1134 -91 112 90
216 223 216 276 0 10 -19 38 -41 63 -93 104 -117 225 -67 332 52 111 136 165
258 164 146 -1 236 -72 272 -214 18 -68 15 -196 -7 -281 -110 -438 -496 -767
-975 -832 -306 -41 -601 16 -824 161 -89 57 -256 224 -319 318 -93 140 -172
328 -225 534 -29 109 -35 137 -47 213 -37 214 -131 411 -263 549 l-55 58 25
28 c14 15 39 43 57 62 45 48 116 165 146 239 46 112 61 190 70 356 16 300 85
518 220 701 82 110 226 242 266 243 9 1 34 -12 55 -27z m-1030 -13 c-21 -30
-115 -89 -142 -89 -2 0 -4 19 -4 43 l0 42 43 -1 c23 -1 56 4 72 11 43 19 48
18 31 -6z m1774 -71 c47 -50 43 -148 -5 -148 -50 0 -91 99 -60 146 19 30 38
30 65 2z m-283 -26 c33 -21 44 -119 16 -144 -27 -24 -179 -54 -197 -39 -46 38
-20 91 74 145 80 47 88 50 107 38z m182 -68 c9 -32 -4 -67 -26 -71 -20 -4 -53
48 -53 83 0 68 58 59 79 -12z m-3969 -11 c0 -54 -56 -115 -87 -94 -17 10 -33
48 -33 75 0 31 18 42 75 45 43 2 45 1 45 -26z m148 13 c10 -10 -11 -86 -29
-105 -35 -37 -63 -23 -72 38 -3 18 -1 44 5 57 10 21 16 23 51 19 22 -3 42 -7
45 -9z m130 -26 c19 0 15 -65 -6 -91 -36 -44 -82 10 -60 71 8 26 15 31 32 26
11 -3 27 -6 34 -6z m3858 -106 c31 -46 16 -153 -23 -168 -40 -16 -73 34 -73
108 0 82 59 118 96 60z m-3601 -65 c98 -104 160 -235 149 -312 -8 -48 -44
-129 -78 -170 l-23 -29 -35 54 c-101 152 -143 283 -136 429 3 52 8 101 12 108
10 15 46 -11 111 -80z m3006 29 c50 -233 -42 -508 -234 -696 -54 -54 -65 -61
-71 -46 -7 18 -8 248 -2 294 22 149 86 309 160 398 41 48 112 112 126 112 4 0
13 -28 21 -62z m439 21 c19 -35 19 -86 -1 -118 -26 -42 -53 -40 -78 6 -31 59
6 166 49 143 11 -6 24 -20 30 -31z m-150 1 c11 -18 11 -90 0 -111 -7 -12 -26
-15 -97 -13 -48 1 -93 2 -100 3 -30 3 -26 93 5 106 28 12 125 30 155 30 16 0
32 -7 37 -15z m-3925 -40 c12 -14 20 -41 23 -78 3 -47 0 -62 -18 -84 -27 -35
-55 -36 -76 -3 -33 50 -33 134 -2 173 16 18 53 14 73 -8z m144 -6 c32 -41 25
-131 -12 -155 -16 -11 -47 2 -58 24 -19 34 -15 114 6 137 24 27 39 25 64 -6z
m145 4 c34 -48 9 -155 -32 -141 -29 10 -42 35 -42 82 0 71 43 104 74 59z m132
14 c17 -11 32 -45 28 -66 -11 -73 -36 -93 -67 -54 -15 17 -18 33 -14 67 6 50
26 71 53 53z m3504 -137 c12 -8 13 -65 1 -84 -7 -11 -28 -12 -102 -7 -52 4
-97 10 -101 14 -18 19 -12 80 10 84 27 6 180 1 192 -7z m144 -41 c9 -8 16 -24
16 -35 0 -29 -28 -79 -45 -79 -34 0 -44 80 -15 116 16 18 25 18 44 -2z m142
-29 c15 -62 -23 -134 -65 -120 -39 12 -39 108 1 145 26 23 55 12 64 -25z
m-3808 10 c2 -2 10 -20 17 -41 21 -63 -9 -114 -51 -86 -50 33 -42 152 9 136
12 -3 24 -8 25 -9z m-154 -36 c36 -42 39 -110 6 -143 -18 -18 -20 -18 -43 -3
-48 31 -60 142 -19 166 25 15 28 14 56 -20z m-173 1 c62 -34 73 -191 14 -206
-13 -3 -32 -1 -43 5 -29 16 -56 92 -49 141 8 64 33 83 78 60z m3796 -35 c13
-2 27 -6 33 -10 13 -8 13 -46 0 -79 -12 -32 -29 -32 -130 -3 -80 23 -95 41
-70 86 10 19 17 20 78 15 37 -2 77 -7 89 -9z m174 -103 c4 -65 -20 -119 -58
-128 -29 -8 -53 15 -53 48 0 31 27 85 50 101 27 19 59 7 61 -21z m-3519 -3
c23 -30 27 -87 8 -99 -34 -21 -90 48 -82 100 4 26 8 31 30 28 14 -2 34 -15 44
-29z m3331 -51 c31 -16 15 -82 -23 -89 -24 -5 -151 42 -171 62 -18 18 -18 22
-4 48 8 16 20 31 27 34 12 4 131 -34 171 -55z m315 34 c21 -14 24 -63 7 -109
-30 -78 -106 -90 -107 -17 -2 59 3 72 31 103 30 32 46 37 69 23z m-3779 -38
c63 -80 12 -170 -53 -93 -25 29 -36 95 -19 112 15 15 53 5 72 -19z m-113 -85
c34 -68 10 -134 -41 -111 -55 25 -88 138 -48 161 24 13 69 -12 89 -50z m3516
-29 c14 -7 29 -21 31 -31 6 -22 -32 -83 -54 -87 -17 -3 -150 70 -169 93 -17
21 -4 64 23 74 21 8 86 -11 169 -49z m-3662 -8 c41 -52 46 -140 8 -154 -52
-20 -125 92 -103 160 11 38 64 35 95 -6z m413 17 c43 -20 76 -106 46 -124 -35
-22 -99 40 -99 97 0 22 5 28 27 37 1 1 13 -4 26 -10z m3421 -35 c10 -27 -21
-83 -49 -90 -49 -12 -54 44 -8 90 25 26 47 25 57 0z m-318 -62 c91 -59 97 -67
78 -103 -23 -45 -56 -56 -92 -31 -43 31 -102 100 -102 119 0 20 28 53 45 53 7
0 38 -17 71 -38z m434 -30 c-12 -44 -32 -70 -62 -83 -79 -33 -67 97 13 138 21
11 26 10 41 -7 12 -15 14 -28 8 -48z m-3656 36 c51 -46 64 -128 22 -144 -20
-8 -73 31 -91 66 -40 77 9 131 69 78z m295 -38 c22 -11 45 -64 37 -85 -13 -36
-74 0 -90 52 -12 39 13 55 53 33z m-421 -51 c40 -40 60 -99 44 -134 -29 -64
-129 4 -146 100 -13 68 47 88 102 34z m3269 -26 c29 -32 53 -65 53 -75 0 -22
-46 -64 -83 -78 -28 -9 -29 -9 -63 65 -19 40 -34 78 -34 83 0 13 50 62 63 62
6 0 34 -26 64 -57z m298 18 c8 -26 -9 -65 -41 -90 -53 -41 -94 -14 -69 45 23
57 97 86 110 45z m-3232 -35 c47 -44 45 -111 -3 -99 -32 9 -70 53 -70 84 0 44
34 51 73 15z m2828 -106 c36 -70 37 -76 21 -92 -9 -9 -29 -20 -45 -23 -25 -7
-29 -4 -52 49 -37 84 -40 104 -19 127 31 35 54 20 95 -61z m502 59 c24 -39
-32 -119 -84 -119 -36 0 -45 27 -23 72 17 36 59 69 83 65 8 -1 18 -9 24 -18z
m-3140 -27 c32 -33 35 -68 7 -75 -39 -10 -101 62 -78 91 17 20 42 14 71 -16z
m-297 2 c55 -37 70 -124 21 -124 -60 0 -124 103 -80 129 24 14 30 14 59 -5z
m3192 -60 c4 -26 -51 -76 -73 -68 -24 10 -17 51 12 74 32 25 57 23 61 -6z
m-2731 -6 c29 -27 30 -58 2 -58 -28 0 -56 17 -69 40 -23 43 27 56 67 18z
m-568 -12 c74 -39 93 -152 24 -140 -62 10 -116 107 -81 142 15 15 23 15 57 -2z
m337 -41 c18 -28 12 -75 -11 -75 -45 0 -90 40 -100 89 -10 51 75 40 111 -14z
m3041 -15 c6 -60 -95 -115 -110 -60 -9 36 43 91 83 87 19 -1 26 -8 27 -27z
m-2873 -21 c29 -23 35 -63 10 -73 -20 -8 -70 19 -84 45 -26 48 25 67 74 28z
m2663 -5 c4 -29 -21 -54 -59 -61 -44 -7 -55 15 -27 51 30 38 82 44 86 10z
m-2957 -20 c58 -35 77 -115 30 -127 -19 -5 -86 32 -103 57 -42 63 6 109 73 70z
m513 -31 c7 -17 7 -27 0 -34 -17 -17 -72 0 -90 28 -16 24 -16 26 1 38 24 18
74 0 89 -32z m152 -7 c24 -10 35 -21 35 -36 0 -27 -23 -35 -59 -20 -34 14 -46
37 -30 56 14 17 12 17 54 0z m-439 -28 c16 -12 30 -22 30 -22 1 -1 4 -11 8
-22 4 -14 1 -28 -9 -37 -21 -21 -66 -5 -100 35 -47 56 9 93 71 46z m2789 -9
c12 -37 -54 -87 -96 -74 -28 9 -23 40 12 69 37 32 75 34 84 5z m-2584 -36 c30
-18 46 -53 34 -72 -18 -30 -98 0 -115 43 -16 44 28 60 81 29z m227 -61 c14
-26 3 -42 -27 -42 -32 0 -81 34 -81 56 0 40 86 29 108 -14z m181 17 c27 -26
13 -49 -30 -49 -27 0 -69 29 -69 48 0 29 68 30 99 1z m-675 -10 c37 -29 49
-55 36 -78 -27 -51 -148 28 -127 83 9 23 59 20 91 -5z m847 -8 c20 -16 21 -21
10 -35 -13 -15 -36 -16 -73 -1 -18 7 -24 35 -11 48 12 13 51 7 74 -12z m-615
-65 c36 -36 37 -58 3 -76 -47 -26 -150 58 -118 96 22 27 78 17 115 -20z m221
-32 c22 -34 10 -54 -30 -54 -40 0 -87 33 -87 61 0 45 86 40 117 -7z m1287 30
c21 -8 20 -27 -1 -46 -41 -35 -103 -25 -82 13 15 29 54 44 83 33z m-1106 -24
c49 -30 37 -70 -21 -70 -58 0 -101 45 -71 74 21 21 52 20 92 -4z m371 3 c25
-21 17 -40 -21 -47 -18 -3 -36 2 -50 14 -19 15 -20 20 -9 34 18 21 53 20 80
-1z m-177 -14 c10 -5 18 -18 18 -29 0 -42 -102 -32 -113 11 -9 35 44 45 95 18z
m716 15 c26 -7 28 -21 5 -46 -30 -33 -108 -17 -85 19 7 10 42 32 52 33 3 0 15
-3 28 -6z m-349 -19 c56 -29 45 -75 -18 -77 -31 -1 -81 27 -88 49 -6 17 26 43
53 43 14 0 38 -7 53 -15z m-800 -81 c55 -46 31 -91 -38 -72 -43 12 -60 25 -71
53 -19 49 57 63 109 19z m1415 1 c13 -34 -59 -80 -102 -64 -27 10 -28 34 -2
57 36 31 93 35 104 7z m-826 -8 c44 -21 16 -69 -36 -61 -60 10 -85 56 -39 73
23 9 37 7 75 -12z m-371 -18 c28 -23 34 -47 17 -63 -36 -37 -144 -1 -144 48 0
43 81 52 127 15z m199 -4 c21 -21 23 -29 14 -40 -19 -23 -75 -18 -107 9 -24
20 -25 26 -14 40 21 25 78 20 107 -9z m540 14 c34 -10 60 -49 51 -73 -14 -35
-119 -6 -133 37 -12 38 24 53 82 36z m249 0 c13 -19 -5 -23 -38 -6 l-32 16 32
0 c17 1 35 -4 38 -10z m-447 -10 c34 -12 51 -44 33 -62 -17 -17 -78 -13 -101
8 -25 22 -26 41 -2 54 22 13 32 13 70 0z m401 -63 c29 -15 51 -52 44 -73 -12
-34 -109 1 -119 42 -11 45 21 59 75 31z m319 -31 c8 -38 -70 -85 -117 -70 -29
9 -32 31 -10 59 35 45 119 52 127 11z m-900 -1 c48 -31 11 -82 -51 -68 -46 10
-67 26 -67 52 0 41 65 50 118 16z m-209 5 c56 -20 65 -72 13 -82 -48 -9 -116
30 -105 61 13 34 39 39 92 21z m550 -19 c11 -6 25 -19 30 -29 21 -38 -37 -56
-84 -25 -31 20 -38 40 -19 58 15 16 40 14 73 -4z m-166 -22 c18 -21 18 -23 1
-35 -36 -27 -104 -2 -104 37 0 36 72 34 103 -2z m340 -17 c15 -2 47 -42 47
-60 0 -25 -33 -36 -62 -20 -59 31 -65 94 -8 83 8 -1 18 -3 23 -3z m205 -48
c40 -25 48 -75 16 -87 -18 -7 -74 15 -92 36 -49 60 5 96 76 51z m-603 -27 c38
-16 38 -17 29 -40 -8 -22 -56 -20 -84 2 -21 17 -21 19 -5 35 20 21 17 20 60 3z
m186 -7 c25 -25 20 -43 -13 -47 -32 -4 -74 29 -65 51 9 24 53 21 78 -4z m178
-30 c46 -43 -1 -79 -52 -39 -15 12 -27 30 -27 41 0 27 49 25 79 -2z m-654 -19
c16 -49 -31 -126 -72 -118 -35 6 -29 82 9 118 28 26 55 26 63 0z m829 -21 c30
-24 36 -68 9 -70 -33 -2 -48 3 -70 24 -56 51 0 94 61 46z m-735 -31 c17 -47
-33 -123 -67 -102 -25 16 -23 62 5 95 30 35 51 37 62 7z m966 -14 c41 -44 27
-106 -19 -82 -43 21 -71 80 -49 101 14 15 45 6 68 -19z m-467 -4 c31 -29 28
-50 -6 -50 -33 0 -67 32 -59 55 9 21 39 19 65 -5z m-403 -40 c7 -24 -13 -69
-38 -84 -27 -16 -49 17 -36 52 21 54 61 72 74 32z m585 -34 c13 -22 13 -28 1
-35 -19 -12 -46 -3 -71 24 -19 20 -20 24 -5 38 21 21 55 9 75 -27z m201 15
c30 -30 35 -46 21 -69 -23 -36 -102 43 -81 81 14 24 26 21 60 -12z m-693 -42
c4 -33 -29 -75 -51 -66 -22 8 -22 41 -1 73 21 31 48 27 52 -7z m267 4 l55 -27
0 -267 c0 -171 -4 -270 -10 -274 -10 -6 -31 -11 -80 -17 l-25 -3 -3 308 c-1
169 0 307 3 307 2 0 29 -12 60 -27z m-593 -28 c14 -31 -7 -91 -38 -112 -53
-35 -71 62 -21 115 27 29 45 28 59 -3z m941 8 c27 -31 26 -73 -1 -73 -30 0
-70 58 -56 81 9 15 40 10 57 -8z m-837 -59 c10 -39 -20 -96 -49 -92 -17 2 -23
10 -25 40 -5 62 60 108 74 52z m690 -90 c54 -110 28 -251 -61 -337 -21 -21
-40 -36 -42 -34 -3 3 -6 405 -4 465 1 23 2 22 41 -9 22 -18 52 -56 66 -85z
m64 86 c21 -21 27 -55 11 -64 -13 -9 -61 33 -61 53 0 36 21 40 50 11z m-490
-192 l0 -201 -21 19 c-44 40 -63 94 -64 179 0 65 4 89 23 125 22 41 50 80 59
80 1 0 3 -91 3 -202z m805 151 c37 -70 -2 -132 -50 -79 -10 11 -18 36 -19 60
-1 65 40 76 69 19z m-967 -10 c4 -33 -29 -75 -52 -66 -13 5 -16 15 -12 37 9
60 58 82 64 29z m842 1 c33 -18 38 -110 6 -110 -33 0 -65 80 -43 108 11 15 13
15 37 2z m-92 -55 c16 -34 15 -50 -2 -64 -21 -17 -46 13 -46 55 0 26 4 34 18
34 11 0 24 -11 30 -25z m-1020 -47 c18 -18 15 -73 -6 -98 -36 -44 -73 10 -52
76 12 35 36 44 58 22z m99 -25 c12 -35 3 -73 -20 -87 -25 -15 -47 15 -42 56 8
59 46 78 62 31z m89 3 c16 -42 3 -96 -22 -96 -19 0 -36 37 -28 63 13 44 39 61
50 33z m104 -44 c0 -36 -49 -75 -51 -39 0 6 -2 20 -4 29 -2 9 4 26 13 39 15
21 16 21 29 4 7 -11 13 -25 13 -33z m688 -38 c3 -32 -19 -61 -38 -49 -11 7
-14 68 -3 79 16 16 38 -1 41 -30z m94 11 c14 -30 -3 -75 -27 -75 -30 0 -38 55
-12 88 14 18 26 15 39 -13z m94 -1 c17 -27 -3 -89 -30 -89 -27 0 -37 43 -20
84 15 35 30 37 50 5z m94 1 c17 -20 6 -86 -17 -103 -25 -18 -47 8 -46 53 2 57
35 83 63 50z m-983 -67 c17 -22 21 -57 9 -74 -12 -15 -14 -15 -34 7 -21 22
-29 59 -15 72 10 11 30 8 40 -5z m-88 -38 c34 -57 -2 -119 -41 -71 -21 26 -24
87 -5 94 22 10 27 7 46 -23z m-123 -8 c34 -22 45 -100 18 -122 -13 -11 -19
-10 -39 11 -49 50 -31 146 21 111z m911 -8 c7 -20 -12 -63 -33 -71 -22 -8 -34
15 -22 46 15 40 44 53 55 25z m95 -64 c-3 -42 -37 -77 -58 -59 -18 15 -18 33
2 70 11 22 21 29 37 27 18 -3 22 -9 19 -38z m-710 13 c24 -22 24 -53 -2 -53
-20 0 -40 27 -40 54 0 21 19 20 42 -1z m808 -18 c25 -30 -21 -120 -58 -113
-32 6 -27 73 8 108 24 24 34 25 50 5z m-870 -37 c24 -26 23 -51 -3 -56 -22 -4
-46 24 -47 56 0 28 23 29 50 0z m565 12 c9 -15 -22 -60 -40 -60 -21 0 -19 47
3 59 22 13 29 13 37 1z m-630 -64 c28 -28 27 -60 -3 -64 -15 -2 -27 6 -41 29
-34 55 -2 81 44 35z m217 7 c21 -19 24 -53 4 -53 -23 0 -66 40 -59 55 7 20 32
19 55 -2z m481 5 c6 -20 -14 -57 -34 -63 -39 -13 -45 18 -11 58 18 20 39 22
45 5z m-766 -60 c24 -22 31 -62 13 -73 -18 -11 -45 4 -61 32 -13 24 -16 37
-10 58 3 13 37 3 58 -17z m831 -6 c4 -25 -33 -65 -56 -60 -24 5 -18 48 10 71
26 21 42 18 46 -11z m-394 2 c21 -21 20 -44 -1 -44 -27 1 -56 27 -50 45 8 19
31 19 51 -1z m-210 -15 c24 -19 34 -48 21 -61 -3 -3 -17 -3 -31 0 -29 5 -59
45 -50 67 8 21 28 19 60 -6z m674 -35 c4 -26 -34 -74 -58 -74 -40 0 -32 53 12
85 27 18 42 15 46 -11z m-503 -24 c23 -26 13 -54 -17 -44 -33 10 -48 24 -48
45 0 26 41 25 65 -1z m-218 -21 c26 -26 30 -57 8 -65 -24 -10 -76 17 -86 44
-19 51 31 64 78 21z m406 11 c45 -36 44 -90 -3 -90 -39 0 -95 66 -83 98 8 19
57 14 86 -8z m-226 -69 c17 -22 16 -29 -7 -41 -17 -9 -26 -6 -52 21 -30 30
-31 32 -14 45 21 15 51 4 73 -25z m177 -54 c17 -37 13 -47 -18 -47 -33 0 -76
37 -76 65 0 47 68 34 94 -18z m-231 -5 c9 -8 17 -26 17 -39 0 -41 -52 -29 -89
20 -11 14 -11 20 -1 32 14 17 45 12 73 -13z m393 -7 c34 -34 29 -69 -10 -73
-37 -5 -76 31 -76 70 0 25 4 28 30 28 20 0 40 -9 56 -25z m136 -39 c29 -21 48
-67 37 -88 -20 -38 -87 -6 -107 52 -18 51 22 72 70 36z m-683 -13 c13 -26 13
-30 -4 -63 -29 -55 -85 -61 -85 -8 0 29 27 76 47 81 30 8 32 7 42 -10z m303
-10 c19 -17 24 -48 8 -58 -25 -16 -93 49 -72 69 11 12 46 6 64 -11z m149 -20
c47 -28 53 -93 9 -93 -46 0 -103 89 -67 103 21 9 28 8 58 -10z m-341 -58 c0
-33 -38 -77 -64 -73 -26 4 -32 30 -15 70 22 53 79 55 79 3z m501 -2 c22 -25
29 -60 15 -72 -19 -16 -71 13 -86 49 -12 29 -12 34 5 46 20 15 40 8 66 -23z
m-725 -29 c7 -27 -22 -92 -48 -108 -52 -31 -64 78 -13 121 29 26 53 21 61 -13z
m865 -25 c28 -14 50 -69 38 -91 -21 -39 -71 -10 -88 50 -13 45 9 63 50 41z
m-766 -19 c18 -56 -58 -138 -79 -84 -10 25 -7 37 14 72 22 36 55 43 65 12z
m361 -22 l44 -31 0 -342 0 -341 -29 -22 -30 -22 -30 26 -31 26 0 362 c0 200 3
366 7 369 11 12 24 8 69 -25z m164 22 c10 -5 23 -23 28 -39 9 -24 8 -31 -6
-36 -23 -9 -66 27 -70 58 -4 29 14 35 48 17z m-430 -94 c-6 -20 -13 -36 -15
-36 -2 0 -10 -3 -19 -6 -24 -9 -37 34 -20 68 17 32 34 40 53 23 11 -11 11 -20
1 -49z m589 28 c25 -32 28 -79 5 -88 -37 -14 -92 52 -79 95 9 28 50 24 74 -7z
m-154 -136 c72 -138 47 -347 -55 -468 -29 -33 -30 -34 -31 -10 0 30 0 535 0
570 1 25 2 24 32 -10 16 -19 41 -56 54 -82z m-632 66 c19 -67 -50 -130 -73
-68 -7 19 -7 37 0 60 18 54 59 58 73 8z m984 -6 c44 -41 24 -138 -25 -121 -33
12 -55 106 -30 131 17 17 28 15 55 -10z m-875 -13 c8 -18 8 -31 -2 -54 -15
-36 -34 -45 -55 -25 -19 20 -19 54 1 82 20 29 42 28 56 -3z m758 -25 c11 -11
20 -23 21 -27 0 -5 2 -17 4 -29 6 -29 -18 -59 -39 -51 -26 10 -48 71 -36 102
11 30 23 32 50 5z m-112 -39 c20 -12 24 -81 6 -88 -20 -7 -42 13 -49 47 -10
45 9 63 43 41z m-529 -143 c0 -107 -3 -135 -10 -113 -18 57 -13 255 6 255 3 0
5 -64 4 -142z m-322 94 c28 -17 38 -89 18 -122 -9 -15 -41 -12 -55 5 -19 23
-19 103 0 115 18 12 22 12 37 2z m121 -17 c22 -47 12 -95 -19 -95 -22 0 -39
29 -39 67 0 53 39 71 58 28z m108 -4 c14 -28 4 -65 -20 -69 -20 -4 -36 34 -29
71 7 34 32 33 49 -2z m794 -26 c18 -21 15 -64 -4 -83 -16 -16 -18 -16 -32 2
-35 49 -1 126 36 81z m-91 -17 c10 -28 4 -70 -12 -80 -7 -4 -20 1 -31 11 -25
26 -15 91 15 91 11 0 23 -10 28 -22z m-767 -75 c22 -20 24 -71 3 -79 -32 -13
-63 45 -43 80 11 20 17 20 40 -1z m-86 -37 c23 -36 15 -71 -16 -71 -19 0 -26
7 -33 32 -18 60 17 87 49 39z m782 -2 c18 -31 -12 -95 -36 -80 -17 10 -20 55
-5 76 17 24 29 25 41 4z m110 -36 c2 -27 -3 -43 -19 -59 -21 -21 -23 -21 -35
-5 -7 10 -11 31 -9 48 9 66 58 79 63 16z m106 16 c12 -30 6 -72 -13 -95 -16
-20 -23 -22 -38 -13 -24 15 -28 69 -8 100 18 27 50 32 59 8z m-820 -36 c20
-28 20 -54 2 -61 -26 -10 -63 52 -43 72 16 16 24 14 41 -11z m-72 -68 c15 -28
15 -37 5 -48 -8 -7 -21 -10 -29 -7 -20 8 -51 71 -43 86 13 21 50 4 67 -31z
m688 -24 c0 -55 -47 -109 -76 -85 -22 18 -17 54 12 88 21 25 29 29 45 21 10
-6 19 -17 19 -24z m-773 -15 c27 -40 27 -41 9 -66 -13 -18 -15 -18 -40 -1 -31
20 -49 60 -40 88 9 29 45 19 71 -21z m233 -78 c0 -25 -4 -33 -18 -33 -28 0
-51 22 -61 58 -9 29 -7 34 12 41 32 13 67 -22 67 -66z m644 61 c12 -31 6 -63
-17 -90 -37 -43 -77 -16 -63 41 13 50 67 84 80 49z m-747 -83 c18 -23 16 -68
-3 -75 -45 -17 -97 67 -62 102 13 13 45 0 65 -27z m519 -27 c4 -26 -37 -67
-62 -62 -29 5 -28 35 1 63 29 30 57 30 61 -1z m-320 -9 c14 -14 24 -31 21 -38
-7 -22 -36 -19 -63 8 -21 21 -23 29 -14 40 17 21 27 19 56 -10z m430 -21 c9
-37 -24 -79 -62 -79 -65 0 -20 98 48 104 4 1 11 -11 14 -25z m-521 -38 c15
-15 22 -31 19 -40 -6 -17 -41 -21 -61 -8 -15 9 -34 58 -26 66 14 13 45 5 68
-18z m255 -62 c125 -68 230 -107 326 -121 17 -2 53 -10 80 -17 41 -10 49 -16
49 -36 0 -18 -7 -26 -30 -32 -91 -25 -427 52 -597 138 -71 36 -63 70 21 94 40
12 101 1 151 -26z m-232 -94 c34 -18 61 -34 60 -35 -2 -2 -59 -12 -128 -24
-247 -40 -355 -45 -376 -16 -8 10 -11 22 -7 27 9 16 67 37 119 43 27 4 60 8
74 10 14 2 43 6 65 10 22 3 54 9 70 14 40 11 49 9 123 -29z m199 -87 l43 -15
-5 -61 c-7 -79 -20 -111 -51 -126 -31 -14 -30 -14 -48 5 -13 12 -16 38 -16
121 0 96 1 105 18 98 9 -4 36 -14 59 -22z"/>
<path d="M3783 6586 c16 -42 29 -143 24 -190 -7 -70 -57 -172 -107 -221 -22
-22 -40 -43 -40 -47 0 -14 59 1 110 27 87 44 130 119 130 226 0 79 -17 126
-62 175 -40 43 -65 57 -55 30z"/>
</g>
</svg>
